<svg width="28" height="45" viewBox="0 0 28 45" fill="none" xmlns="http://www.w3.org/2000/svg">
                    <path d="M0 0V45H27.1934V0H0ZM10.3061 1.44964H16.8873V3.41032H10.3061V1.44964ZM13.5959 42.1973C12.4537 42.1973 11.5278 41.272 11.5278 40.1263C11.5278 38.9857 12.4537 38.0582 13.5959 38.0582C14.7397 38.0582 15.665 38.9856 15.665 40.1263C15.665 41.272 14.7395 42.1973 13.5959 42.1973ZM23.2721 35.8499H3.92101V4.96667H23.272V35.8499H23.2721Z" fill="url(#paint0_linear)"></path>
                    <path d="M0 0V45H27.1934V0H0ZM10.3061 1.44964H16.8873V3.41032H10.3061V1.44964ZM13.5959 42.1973C12.4537 42.1973 11.5278 41.272 11.5278 40.1263C11.5278 38.9857 12.4537 38.0582 13.5959 38.0582C14.7397 38.0582 15.665 38.9856 15.665 40.1263C15.665 41.272 14.7395 42.1973 13.5959 42.1973ZM23.2721 35.8499H3.92101V4.96667H23.272V35.8499H23.2721Z" fill="url(#paint1_radial)"></path>
                    <defs>
                    <linearGradient id="paint0_linear" x1="13.5967" y1="0" x2="13.5967" y2="45" gradientUnits="userSpaceOnUse">
                    <stop stop-color="#FF0303"></stop>
                    <stop offset="1" stop-color="#FF2E00"></stop>
                    </linearGradient>
                    <radialGradient id="paint1_radial" cx="0" cy="0" r="1" gradientUnits="userSpaceOnUse" gradientTransform="translate(13.5967 1.10656) rotate(90) scale(29.8771 18.0546)">
                    <stop stop-color="white" stop-opacity="0.35"></stop>
                    <stop offset="0.75" stop-color="white" stop-opacity="0.3"></stop>
                    <stop offset="1" stop-color="white" stop-opacity="0"></stop>
                    </radialGradient>
                    </defs>
                </svg>