<?xml version="1.0" standalone="no"?>
<!DOCTYPE svg PUBLIC "-//W3C//DTD SVG 20010904//EN"
 "http://www.w3.org/TR/2001/REC-SVG-20010904/DTD/svg10.dtd">
<svg version="1.0" xmlns="http://www.w3.org/2000/svg"
 width="2753.000000pt" height="2753.000000pt" viewBox="0 0 2753.000000 2753.000000"
 preserveAspectRatio="xMidYMid meet">
<metadata>
Created by potrace 1.14, written by Peter Selinger 2001-2017
</metadata>
<g transform="translate(0.000000,2753.000000) scale(0.100000,-0.100000)"
fill="#000000" stroke="none">
<path d="M13210 27514 c-30 -2 -140 -8 -245 -14 -3872 -214 -7495 -2093 -9949
-5160 -332 -415 -732 -983 -970 -1377 -20 -35 -42 -63 -47 -63 -8 0 -14 65 -9
118 1 12 -2 22 -7 22 -4 0 -8 29 -9 64 -1 35 -5 72 -9 83 -4 10 -9 59 -10 108
-3 101 -6 117 -20 127 -6 5 -5 8 3 8 8 0 10 5 6 12 -10 15 -8 104 2 120 5 7 3
8 -5 3 -9 -5 -11 1 -8 24 3 17 2 33 -2 35 -4 3 -7 23 -6 45 1 23 -3 41 -8 41
-4 0 -5 5 -2 11 11 16 12 70 3 75 -5 3 -4 12 3 20 6 8 7 14 2 14 -12 0 -11 39
1 59 7 10 5 12 -4 6 -9 -6 -10 -2 -5 15 4 13 3 20 -2 17 -5 -3 -9 3 -9 14 0
10 4 19 9 19 4 0 5 5 1 12 -4 7 -9 75 -10 151 -1 76 -4 141 -8 144 -3 3 -1 13
4 22 5 10 5 23 0 31 -5 9 -5 19 2 27 6 7 7 13 2 13 -5 0 -10 27 -11 60 -1 42
2 58 10 54 7 -3 3 2 -7 10 -11 9 -15 16 -8 16 7 0 9 15 6 43 -2 23 -6 116 -8
207 -2 91 -5 165 -6 165 -1 0 -4 13 -6 30 -3 16 -8 32 -12 35 -4 3 -9 16 -10
30 -2 14 -8 27 -13 28 -5 2 -9 12 -9 23 0 10 -4 19 -10 19 -5 0 -10 6 -10 14
0 7 -7 19 -15 26 -9 7 -13 15 -11 17 2 3 -3 13 -12 22 -10 10 -27 28 -39 42
-44 47 -73 73 -73 65 0 -5 -8 0 -18 10 -18 20 -71 49 -84 46 -5 -1 -8 2 -8 6
0 4 -21 14 -48 21 -26 8 -53 19 -61 25 -12 9 -13 8 -6 -4 7 -12 6 -13 -6 -4
-16 13 -212 14 -225 2 -4 -5 -17 -8 -29 -8 -12 0 -25 -3 -29 -7 -3 -4 -16 -8
-28 -10 -12 -2 -25 -7 -28 -12 -3 -5 -16 -12 -29 -16 -14 -4 -29 -12 -35 -17
-6 -4 -37 -28 -69 -53 -32 -24 -59 -47 -59 -52 -2 -9 -13 -24 -46 -58 -13 -14
-20 -25 -16 -25 3 0 1 -6 -5 -13 -6 -8 -8 -17 -4 -20 3 -4 1 -7 -5 -7 -7 0
-12 -7 -12 -15 0 -8 -5 -15 -11 -15 -6 0 -9 -6 -6 -12 2 -7 -2 -26 -10 -41 -8
-16 -12 -31 -9 -35 3 -3 -1 -14 -11 -24 -11 -13 -12 -18 -3 -18 8 0 9 -4 3
-12 -8 -11 -8 -122 -3 -473 0 -5 -1 -36 -3 -68 -1 -33 2 -57 8 -57 6 0 3 -5
-5 -10 -12 -8 -12 -10 -1 -10 10 0 11 -3 2 -13 -8 -10 -7 -17 1 -25 7 -7 8
-12 2 -12 -8 0 -11 -49 -4 -57 7 -8 5 -30 -3 -47 -6 -13 -6 -16 2 -12 12 8 12
4 15 -216 0 -76 3 -138 6 -138 5 0 6 -18 11 -180 2 -47 8 -88 13 -92 7 -5 6
-8 -2 -8 -8 0 -10 -5 -5 -12 9 -15 11 -35 13 -145 1 -46 6 -83 11 -83 11 0 7
-23 -6 -32 -6 -5 -6 -8 1 -8 7 0 11 -27 10 -79 -1 -46 3 -77 8 -73 5 3 7 -2 3
-10 -3 -9 -3 -19 1 -22 6 -7 12 -65 12 -119 0 -16 3 -33 6 -39 5 -8 11 -65 14
-151 1 -9 5 -15 10 -12 5 3 5 -8 0 -25 -5 -18 -5 -32 1 -35 5 -4 5 -13 0 -23
-9 -18 -4 -45 8 -38 4 3 6 -19 6 -47 -1 -29 1 -56 4 -62 3 -5 6 -13 7 -17 1
-5 3 -9 4 -10 1 -2 3 -21 5 -43 1 -22 5 -48 9 -57 4 -9 5 -22 1 -28 -3 -5 -2
-10 3 -10 4 0 8 -17 7 -37 -1 -21 1 -42 4 -48 7 -13 10 -30 12 -82 2 -24 6
-43 9 -43 4 0 8 -23 9 -52 1 -29 5 -55 9 -58 4 -3 7 -14 7 -25 0 -11 3 -31 8
-44 4 -14 10 -45 13 -70 3 -25 9 -50 13 -56 3 -5 6 -27 6 -47 0 -21 4 -38 8
-38 5 0 7 -6 4 -12 -2 -7 0 -21 5 -30 6 -13 5 -18 -4 -18 -9 0 -9 -3 2 -10 8
-5 16 -26 16 -47 1 -21 3 -39 4 -40 1 -2 4 -7 5 -13 1 -5 4 -12 5 -15 1 -3 3
-13 5 -22 1 -10 5 -26 10 -36 4 -10 8 -31 9 -47 0 -17 5 -30 9 -30 5 0 7 -15
5 -34 -2 -19 1 -34 6 -33 5 1 10 -12 11 -29 1 -17 5 -36 9 -43 4 -6 -31 -102
-77 -214 -438 -1051 -752 -2204 -911 -3342 -92 -660 -129 -1211 -130 -1915 0
-722 40 -1302 138 -1977 20 -142 28 -223 21 -223 -5 0 -4 -4 4 -9 9 -6 10 -10
2 -16 -9 -5 -9 -11 1 -23 10 -12 10 -14 1 -8 -7 4 -13 2 -13 -3 0 -6 5 -11 10
-11 6 0 10 -5 10 -11 0 -5 -6 -7 -13 -3 -9 6 -9 5 -1 -7 7 -8 14 -34 17 -59 7
-58 13 -84 27 -109 6 -12 8 -21 4 -21 -3 0 -2 -6 4 -12 6 -7 31 -114 56 -238
354 -1749 1042 -3407 2028 -4884 l106 -158 -41 -41 c-23 -23 -45 -41 -50 -39
-5 1 -6 -1 -3 -6 3 -5 -9 -23 -27 -39 -17 -16 -51 -50 -73 -76 -23 -25 -45
-43 -49 -39 -3 4 -6 2 -4 -3 4 -16 -12 -45 -22 -39 -5 3 -9 1 -9 -3 0 -5 -18
-28 -39 -51 -22 -23 -38 -42 -35 -42 2 0 -8 -14 -23 -31 -43 -48 -73 -83 -81
-94 -4 -5 -26 -33 -49 -61 -24 -29 -43 -55 -43 -59 0 -4 -10 -16 -22 -27 -13
-11 -16 -17 -8 -13 13 6 13 5 0 -7 -9 -7 -27 -29 -40 -48 -13 -19 -31 -40 -40
-47 -8 -7 -11 -13 -7 -13 5 0 2 -7 -5 -15 -28 -31 -39 -45 -34 -45 3 0 -5 -11
-18 -24 -12 -14 -33 -45 -46 -70 -13 -26 -27 -46 -32 -46 -5 0 -6 -4 -3 -10 3
-5 1 -10 -4 -10 -6 0 -11 -7 -11 -15 0 -8 -4 -15 -10 -15 -5 0 -10 -6 -10 -13
0 -7 -10 -24 -22 -37 -13 -14 -21 -25 -18 -25 3 0 -6 -18 -20 -40 -14 -22 -27
-44 -29 -50 -2 -5 -10 -16 -18 -23 -7 -8 -11 -18 -7 -23 3 -5 -2 -12 -10 -15
-9 -3 -14 -10 -11 -14 3 -5 0 -14 -7 -22 -7 -7 -14 -20 -16 -28 -2 -8 -9 -18
-15 -22 -7 -4 -8 -8 -4 -8 5 0 -1 -13 -13 -30 -12 -16 -18 -34 -15 -40 3 -5 1
-10 -5 -10 -9 0 -34 -49 -30 -59 1 -2 -3 -7 -8 -10 -13 -9 -42 -67 -42 -86 0
-9 -6 -18 -13 -21 -7 -2 -14 -16 -15 -31 -1 -15 -7 -30 -13 -34 -7 -4 -8 -12
-5 -18 4 -6 2 -11 -5 -11 -7 0 -10 -3 -6 -6 3 -4 -1 -13 -9 -21 -8 -9 -13 -22
-10 -29 3 -8 -1 -14 -10 -14 -8 0 -12 -5 -9 -10 4 -6 -1 -22 -9 -35 -9 -14
-14 -25 -11 -25 3 0 -2 -15 -12 -32 -9 -18 -18 -36 -19 -40 -1 -5 -3 -11 -4
-15 -1 -5 -2 -11 -1 -15 0 -5 -4 -8 -10 -8 -5 0 -8 -4 -5 -9 3 -5 -2 -26 -11
-47 -9 -22 -18 -48 -20 -58 -2 -11 -8 -25 -14 -33 -6 -7 -8 -13 -5 -13 4 0 2
-9 -4 -21 -7 -11 -14 -33 -16 -47 -3 -15 -9 -31 -15 -38 -5 -6 -6 -14 -2 -17
3 -4 1 -7 -4 -7 -6 0 -10 -8 -9 -17 2 -10 0 -20 -5 -23 -4 -3 -9 -17 -11 -32
-2 -15 -7 -30 -11 -34 -4 -4 -7 -19 -7 -34 0 -14 -5 -31 -12 -38 -7 -7 -9 -12
-5 -12 4 0 1 -16 -8 -35 -8 -20 -10 -33 -4 -29 7 4 7 0 0 -12 -5 -11 -13 -32
-17 -49 -8 -33 -10 -41 -14 -52 -1 -5 -2 -12 -1 -17 1 -4 -2 -13 -7 -20 -4 -6
-8 -18 -7 -26 0 -8 -3 -18 -7 -21 -5 -3 -9 -24 -11 -47 -1 -23 -5 -42 -9 -42
-3 0 -5 -8 -3 -17 1 -10 -3 -24 -9 -32 -9 -12 -8 -13 2 -7 11 7 12 4 4 -11 -6
-10 -13 -39 -17 -63 -3 -25 -10 -63 -15 -84 -5 -22 -7 -44 -4 -48 3 -4 1 -8
-4 -8 -5 0 -9 -7 -9 -15 0 -8 5 -15 11 -15 7 0 6 -3 -1 -8 -15 -9 -25 -70 -36
-216 -2 -23 -8 -49 -12 -56 -6 -9 -4 -11 5 -5 10 6 11 4 4 -6 -9 -14 -11 -30
-13 -102 -1 -25 -5 -36 -12 -31 -8 5 -8 1 0 -13 6 -11 7 -23 4 -27 -4 -4 -8
-30 -9 -59 -1 -29 -3 -75 -4 -103 -2 -27 0 -55 4 -62 4 -7 3 -12 -3 -12 -11 0
-9 -19 3 -39 6 -9 5 -12 -1 -8 -6 4 -14 0 -17 -9 -3 -8 -2 -12 4 -9 5 3 7 -10
4 -32 -9 -79 -10 -93 -4 -93 4 0 7 -7 7 -15 0 -8 -3 -15 -6 -15 -8 0 -5 -160
3 -180 3 -8 7 -26 9 -40 4 -29 14 -57 28 -84 8 -13 7 -16 0 -11 -6 3 0 -10 13
-30 14 -20 28 -45 31 -56 4 -10 11 -19 16 -19 6 0 7 -4 4 -10 -3 -5 1 -10 9
-10 9 0 16 -6 16 -13 0 -12 74 -87 86 -87 3 0 14 -9 26 -20 12 -11 28 -20 35
-20 7 0 13 -5 13 -11 0 -5 4 -7 10 -4 5 3 10 2 10 -3 0 -9 25 -21 55 -27 6 -1
21 -7 35 -12 14 -6 31 -8 38 -6 6 3 12 1 12 -5 0 -10 208 -14 225 -4 6 4 19 8
30 9 11 2 24 8 29 13 4 4 15 6 22 3 8 -3 14 0 14 6 0 6 3 10 8 10 20 -3 33 2
27 11 -4 6 -3 9 2 8 11 -3 54 12 67 23 6 5 24 20 39 34 15 14 32 25 38 25 5 0
8 6 7 13 -2 6 3 11 10 9 6 -1 12 4 12 11 0 7 9 19 19 27 11 7 18 17 16 21 -3
4 2 10 11 13 8 3 12 10 9 16 -3 5 -2 10 2 10 5 0 14 9 21 21 11 17 11 20 0 13
-7 -4 -5 2 5 13 15 17 39 78 41 105 1 3 4 9 8 13 4 4 4 13 1 21 -3 8 0 14 7
14 6 0 8 5 3 13 -10 17 -13 37 -4 37 7 0 10 60 12 217 0 29 5 55 10 59 5 3 6
11 2 17 -12 18 -10 57 2 57 6 0 7 3 0 8 -15 11 -17 32 -2 32 8 0 7 4 -3 10
-12 8 -12 10 -1 10 10 0 11 3 2 13 -6 8 -8 17 -4 20 3 4 8 33 10 64 2 32 10
61 16 65 7 4 7 8 2 8 -6 0 -11 9 -11 20 0 11 3 20 6 20 3 0 6 21 6 48 3 90 3
93 17 86 9 -5 9 -4 1 5 -7 8 -8 27 -4 52 4 21 5 39 2 39 -2 0 0 6 5 12 5 7 9
20 8 28 -1 8 3 23 8 34 6 12 6 16 -1 12 -6 -4 -8 2 -5 14 3 11 8 20 12 20 3 0
7 12 8 28 1 15 5 45 8 67 3 22 6 46 7 53 1 6 4 12 8 12 3 0 5 12 5 28 -1 15 1
32 4 37 3 6 7 15 8 20 1 6 7 28 13 50 6 22 13 51 16 65 2 14 8 32 11 40 6 14
11 38 15 68 1 6 4 12 8 12 4 0 6 10 5 22 -1 13 2 26 7 29 5 3 10 16 11 27 1
12 4 22 8 22 4 0 6 8 5 17 -2 10 5 31 14 48 9 16 17 37 18 45 2 21 62 184 83
227 6 11 8 27 4 34 -5 8 -4 10 3 5 11 -6 14 0 11 20 0 4 4 10 11 14 6 4 12 17
13 28 1 12 5 22 9 22 4 0 12 18 18 40 6 22 15 40 20 40 6 0 9 3 9 8 -4 16 23
72 32 66 5 -3 6 2 3 10 -3 9 -1 16 6 16 6 0 9 4 5 9 -3 5 2 17 11 25 8 9 12
16 8 16 -4 0 1 9 11 20 10 11 14 20 10 20 -4 0 0 9 10 20 10 11 14 20 10 20
-4 0 -2 8 6 18 8 9 21 31 29 47 8 17 20 33 27 38 7 4 9 15 6 24 -4 11 -3 14 5
9 7 -4 12 -1 12 8 0 9 5 16 11 16 5 0 8 4 4 9 -3 6 2 14 11 19 9 5 16 13 16
18 1 18 22 54 31 54 6 0 8 3 4 6 -3 4 1 13 9 21 8 8 11 19 8 25 -4 6 -2 8 3 5
6 -4 16 7 23 23 7 16 16 27 21 24 5 -3 9 2 9 10 0 9 9 25 20 36 11 11 18 20
15 20 -3 0 -1 6 5 13 41 48 54 65 66 90 8 15 19 27 24 27 6 0 10 6 10 13 0 7
8 20 18 28 9 9 31 33 47 54 17 21 40 49 53 61 12 13 21 25 20 27 -3 2 39 50
114 128 l36 39 145 -173 c1182 -1406 2635 -2563 4272 -3403 1588 -815 3350
-1316 5125 -1459 433 -34 579 -39 1130 -39 636 0 963 16 1500 74 2446 267
4770 1186 6742 2666 845 635 1629 1376 2283 2159 64 77 121 144 125 148 4 5
23 -7 41 -26 69 -70 107 -116 101 -121 -3 -3 2 -6 11 -6 9 0 16 -4 14 -9 -1
-5 10 -22 25 -39 14 -17 24 -33 21 -36 -4 -3 2 -6 12 -6 10 0 16 -3 12 -6 -3
-3 10 -22 29 -42 19 -20 34 -41 34 -48 0 -7 7 -14 15 -18 8 -3 15 -12 15 -20
0 -8 4 -16 8 -18 5 -1 30 -34 56 -73 27 -38 55 -77 62 -86 8 -8 14 -23 14 -32
0 -9 6 -16 13 -14 6 1 11 -4 10 -10 -2 -7 2 -13 7 -13 6 0 10 -4 10 -9 0 -17
68 -120 74 -113 4 4 7 2 6 -3 -4 -20 0 -32 20 -55 11 -12 17 -27 14 -31 -3 -5
0 -9 6 -9 6 0 9 -4 6 -9 -4 -5 -2 -11 3 -13 5 -1 11 -10 13 -18 2 -8 6 -17 9
-20 4 -3 32 -57 64 -120 31 -63 63 -127 71 -142 8 -16 12 -28 8 -28 -4 0 1
-10 12 -22 13 -14 14 -19 4 -14 -9 5 -8 2 2 -7 10 -8 15 -16 12 -19 -3 -3 7
-26 21 -52 14 -25 23 -46 20 -46 -3 0 1 -13 10 -30 8 -16 16 -33 16 -37 1 -5
6 -19 12 -33 6 -14 9 -29 8 -34 -1 -4 3 -14 10 -22 6 -8 9 -20 6 -28 -3 -8 0
-17 8 -20 7 -2 12 -13 11 -23 -2 -10 1 -21 6 -24 8 -5 15 -27 25 -82 3 -15 9
-30 14 -33 5 -3 9 -15 9 -28 0 -12 6 -28 13 -35 10 -11 9 -12 -3 -6 -12 7 -13
6 -3 -7 7 -8 14 -27 15 -42 1 -14 6 -26 11 -26 5 0 6 -7 3 -16 -4 -9 -1 -23 5
-30 6 -8 9 -21 5 -29 -3 -8 -1 -15 4 -15 6 0 9 -3 9 -7 -1 -5 0 -10 1 -13 1
-3 3 -12 5 -20 2 -8 8 -34 13 -58 6 -24 9 -54 7 -67 -1 -14 1 -22 6 -20 4 3 8
-3 8 -12 1 -20 8 -75 11 -83 1 -3 2 -12 1 -22 -1 -9 3 -19 8 -22 6 -4 8 -13 5
-21 -3 -7 0 -23 6 -35 10 -18 10 -21 -2 -14 -10 6 -11 4 -2 -7 5 -8 11 -30 13
-49 2 -19 8 -38 13 -41 6 -4 6 -8 -2 -11 -10 -3 -10 -9 -2 -24 8 -15 8 -24 0
-32 -8 -8 -9 -12 -1 -12 6 0 11 -10 10 -22 -1 -52 8 -108 16 -108 5 0 4 -7 -3
-15 -7 -8 -9 -15 -4 -15 5 0 9 -24 9 -53 0 -28 4 -58 9 -64 5 -8 4 -13 -3 -13
-7 0 -8 -8 -1 -24 6 -16 5 -28 -3 -36 -10 -10 -8 -12 7 -6 15 5 16 4 8 -7 -6
-7 -8 -24 -5 -37 5 -18 3 -21 -8 -15 -12 8 -12 6 0 -8 7 -9 10 -17 6 -17 -4 0
-1 -8 6 -17 10 -12 11 -15 1 -9 -9 6 -11 1 -8 -18 3 -14 7 -30 11 -36 3 -5 2
-10 -3 -10 -5 0 -6 -17 -3 -38 4 -20 6 -63 6 -95 0 -45 3 -56 14 -52 10 4 11
2 3 -8 -9 -11 -10 -36 -2 -57 1 -3 2 -8 1 -12 0 -5 4 -8 9 -8 6 0 10 -6 9 -12
-2 -7 5 -30 14 -52 9 -21 17 -42 17 -47 0 -5 5 -9 10 -9 6 0 10 -9 10 -21 0
-11 5 -17 10 -14 5 3 10 0 10 -7 0 -8 9 -20 19 -28 11 -7 18 -17 15 -22 -3 -4
2 -8 10 -8 9 0 16 -7 16 -15 0 -8 4 -15 9 -15 5 0 22 -13 39 -28 16 -15 48
-36 71 -47 23 -10 41 -22 41 -27 0 -5 4 -7 9 -3 5 3 12 1 16 -5 4 -6 11 -7 17
-4 6 4 13 2 17 -5 4 -6 21 -12 39 -14 18 -2 35 -7 39 -10 11 -12 24 -7 17 5
-6 10 -4 10 7 2 21 -16 127 -18 146 -2 12 9 15 10 9 1 -9 -16 -1 -16 26 -2 15
8 18 8 14 0 -5 -7 -1 -9 8 -5 9 3 16 9 16 13 0 8 9 10 55 13 14 1 25 5 25 8 0
4 21 17 48 30 26 13 55 32 65 43 9 11 17 17 17 14 0 -10 62 53 101 103 31 40
71 113 73 132 1 3 4 10 8 14 4 4 2 14 -5 22 -8 10 -8 13 -1 9 13 -8 27 19 18
34 -3 5 -2 15 3 22 4 6 9 23 9 37 1 14 3 27 4 30 6 14 4 90 -2 90 -4 0 -3 11
2 25 7 17 6 25 -1 25 -8 0 -7 5 1 15 7 8 8 15 3 15 -4 0 -8 29 -7 65 0 37 -3
62 -9 58 -5 -3 -4 4 2 16 9 16 9 21 -1 21 -8 0 -9 3 -3 8 10 7 15 72 5 72 -3
0 -5 30 -4 68 0 37 -3 75 -8 84 -5 10 -3 18 5 21 9 4 9 6 0 6 -7 1 -10 7 -7
15 3 8 0 17 -6 21 -8 5 -8 11 1 21 6 8 8 14 3 14 -5 0 -9 17 -10 38 -1 48 -10
107 -18 120 -3 6 -2 13 3 17 6 3 7 15 3 28 -5 12 -7 32 -6 45 0 12 -2 22 -6
22 -4 0 -7 7 -7 15 0 8 5 15 10 15 5 0 4 7 -3 15 -7 8 -10 15 -7 15 3 0 0 21
-7 48 -7 26 -12 55 -10 65 1 9 -1 17 -4 17 -4 0 -8 12 -9 28 -5 69 -8 87 -14
92 -4 3 -9 28 -13 55 -3 28 -7 59 -8 70 -2 11 -7 23 -13 27 -6 5 -5 8 3 8 10
0 10 4 0 23 -13 25 -20 51 -22 85 -1 12 -5 22 -10 22 -4 0 -6 7 -3 15 4 8 2
17 -4 20 -5 4 -7 11 -4 16 4 5 2 9 -4 9 -5 0 -8 11 -7 25 2 14 -2 30 -9 35 -7
6 -11 20 -8 30 3 11 1 20 -4 20 -6 0 -9 11 -8 25 2 14 -1 25 -5 25 -5 0 -7 9
-5 20 2 11 -1 20 -7 20 -5 0 -7 8 -4 17 4 9 2 19 -4 23 -6 4 -12 17 -13 28 -1
12 -6 22 -11 22 -5 0 -7 3 -4 6 6 6 -24 99 -35 111 -4 3 -7 17 -7 29 0 13 -4
25 -10 29 -5 3 -7 12 -3 20 3 8 0 15 -7 15 -6 0 -8 5 -5 10 3 6 2 10 -3 10 -9
0 -11 8 -15 54 -1 13 -5 22 -9 19 -5 -2 -8 4 -8 14 0 10 -7 29 -16 41 -8 12
-12 22 -8 22 5 0 3 5 -4 12 -7 7 -12 20 -12 30 0 10 -6 21 -14 24 -8 3 -13 14
-11 25 2 10 0 19 -6 19 -5 0 -9 9 -9 20 0 11 -4 20 -9 20 -8 0 -25 56 -22 73
0 4 -3 7 -8 7 -5 0 -13 12 -19 28 -20 56 -47 112 -54 112 -5 0 -8 9 -8 20 0
11 -4 20 -10 20 -5 0 -10 9 -10 19 0 11 -3 21 -7 23 -5 2 -28 44 -53 93 -25
50 -47 92 -50 95 -3 3 -11 17 -17 33 -7 15 -17 27 -23 27 -6 0 -9 4 -6 9 3 5
-1 14 -9 21 -8 7 -15 16 -15 21 0 4 -13 28 -30 52 -16 25 -30 50 -30 56 0 6
-5 11 -11 11 -5 0 -8 4 -5 9 3 5 -1 11 -9 15 -8 3 -15 12 -15 21 0 8 -5 15
-12 15 -6 0 -9 3 -5 6 6 6 -38 72 -58 86 -7 5 -7 8 0 8 6 0 3 6 -5 13 -8 7
-26 29 -40 49 -14 21 -28 38 -32 38 -5 0 -8 6 -8 13 0 8 -9 22 -20 32 -11 10
-18 20 -15 23 2 3 -5 13 -17 23 -11 11 -18 19 -14 19 4 0 1 6 -6 14 -7 7 -29
33 -47 56 -19 23 -41 48 -48 56 -7 7 -13 15 -13 19 0 3 -13 19 -30 35 -16 16
-30 32 -30 35 0 5 -38 51 -72 86 -9 10 -14 19 -12 21 2 3 -7 11 -21 18 -14 7
-25 17 -25 21 0 5 -17 25 -37 46 -21 21 -37 41 -36 45 2 4 -6 10 -17 13 -11 4
-20 10 -20 14 0 4 -27 35 -61 69 l-60 60 119 179 c858 1286 1494 2716 1877
4218 568 2230 563 4608 -15 6840 -155 602 -374 1255 -612 1825 -50 118 -92
225 -94 237 -3 14 2 26 13 32 10 6 13 11 6 11 -6 0 -10 8 -8 18 2 9 4 25 4 35
1 10 5 16 11 12 5 -3 8 9 6 29 -1 20 1 37 6 38 4 2 8 18 10 36 1 19 6 36 10
38 4 3 8 20 8 38 0 17 6 38 13 45 10 11 9 12 -2 6 -10 -6 -12 -4 -5 6 9 15 12
29 16 72 1 15 5 27 9 27 4 0 6 8 5 18 -2 9 2 35 8 57 6 22 11 51 11 65 0 14 4
28 9 31 5 4 10 24 12 45 3 47 8 71 16 80 4 3 3 17 -2 30 -7 16 -6 24 1 24 6 0
9 7 5 15 -3 8 -2 15 3 15 4 0 8 6 9 13 6 62 5 98 -3 101 -5 3 -3 5 6 5 12 1
16 12 16 44 1 42 4 63 14 82 2 6 4 29 4 52 0 26 5 45 13 48 8 3 10 10 6 17
-11 18 -5 71 10 80 8 6 7 8 -2 8 -7 0 -10 5 -6 12 4 6 9 38 12 72 2 34 9 64
16 68 10 7 2 12 -16 9 -4 0 -5 6 -2 14 4 8 9 15 14 15 4 0 6 19 5 43 -1 23 2
54 6 68 4 17 2 32 -4 39 -9 8 -8 10 3 5 12 -4 15 5 16 47 0 60 8 111 20 129 5
8 3 9 -6 4 -9 -6 -11 -4 -5 5 4 7 8 46 9 87 0 40 3 73 6 73 4 0 6 21 5 48 0
26 2 59 6 73 4 16 2 32 -4 38 -6 6 -7 11 -1 11 10 0 13 27 17 157 1 46 6 83
11 83 5 0 3 7 -4 15 -7 8 -8 15 -3 15 5 0 9 9 10 20 1 13 -2 18 -10 13 -8 -4
-8 -2 1 9 7 9 11 27 8 41 -2 14 -2 28 1 31 4 3 7 68 8 144 1 76 5 144 9 150 3
6 2 13 -4 17 -6 4 -7 13 -1 23 5 9 8 38 7 65 -1 26 1 47 4 47 4 0 5 637 0 650
-4 11 -10 56 -11 73 0 9 -5 17 -10 17 -6 0 -7 5 -4 10 3 6 2 10 -3 10 -6 0 -9
6 -9 13 1 19 -24 77 -34 77 -5 0 -9 7 -9 15 0 9 -11 27 -25 40 -13 14 -22 25
-19 25 2 0 -15 20 -38 44 -24 24 -45 42 -47 40 -2 -2 -14 8 -27 21 -13 14 -26
25 -29 25 -12 0 -75 34 -75 41 0 4 -8 5 -19 2 -10 -3 -22 0 -25 6 -4 6 -20 11
-37 11 -16 0 -29 4 -29 8 0 12 -212 11 -227 -1 -7 -5 -22 -7 -32 -4 -12 3 -22
-1 -25 -10 -3 -8 -12 -13 -19 -10 -11 4 -86 -32 -114 -55 -7 -6 -13 -8 -13 -5
0 3 -12 -5 -26 -18 -15 -14 -31 -25 -35 -25 -5 0 -9 -7 -9 -16 0 -8 -4 -12
-10 -9 -5 3 -10 3 -10 -2 0 -4 -16 -26 -35 -47 -19 -22 -32 -43 -29 -48 3 -4
-2 -8 -11 -8 -9 0 -14 -4 -10 -9 3 -5 -1 -15 -8 -23 -7 -7 -14 -16 -15 -20 -5
-16 -14 -44 -24 -70 -5 -15 -7 -32 -3 -37 3 -6 -1 -14 -10 -17 -13 -6 -14 -8
-3 -15 7 -5 8 -9 2 -9 -7 0 -11 -25 -10 -72 1 -40 -2 -83 -6 -95 -4 -13 -4
-23 1 -23 5 0 5 -15 1 -34 -4 -18 -3 -41 2 -50 6 -10 5 -16 -1 -16 -5 0 -9 -9
-8 -20 1 -11 5 -20 10 -20 4 0 5 -6 0 -12 -12 -20 -13 -41 -2 -54 7 -8 6 -14
-1 -19 -5 -3 -10 -13 -10 -21 0 -10 5 -12 13 -8 9 6 9 4 1 -7 -7 -8 -11 -50
-10 -102 0 -48 -1 -87 -4 -87 -3 0 -5 -68 -5 -150 0 -82 -3 -150 -6 -150 -3 0
-6 -7 -6 -15 0 -8 5 -15 11 -15 6 0 4 -5 -4 -10 -8 -5 -11 -10 -6 -10 5 0 2
-8 -5 -17 -8 -9 -9 -14 -3 -10 7 4 15 0 18 -9 4 -10 2 -13 -6 -8 -7 5 -9 0 -6
-14 4 -12 3 -22 0 -22 -4 0 -7 -43 -7 -95 1 -60 -3 -95 -10 -95 -5 0 -3 -5 5
-10 10 -7 11 -12 4 -17 -6 -5 -11 -19 -11 -33 -2 -114 -9 -190 -16 -190 -5 0
-5 -6 2 -13 8 -10 7 -17 -2 -27 -10 -10 -9 -11 2 -5 10 6 12 4 5 -6 -5 -8 -10
-34 -10 -59 -1 -25 -5 -63 -8 -85 -4 -22 -8 -68 -9 -102 -1 -35 -6 -63 -10
-63 -5 0 -6 -4 -2 -9 3 -5 2 -12 -3 -14 -4 -3 -7 -21 -6 -41 2 -36 -9 -48 -19
-22 -12 31 -263 417 -401 616 -2091 3019 -5266 5077 -8842 5730 -377 69 -828
131 -1194 165 -431 39 -616 47 -1205 50 -324 1 -615 1 -645 -1z m950 -954
c2445 -82 4739 -822 6750 -2178 537 -362 988 -718 1522 -1202 l39 -35 -1123
-1120 c-617 -616 -1119 -1116 -1115 -1111 4 5 -5 25 -20 44 -15 20 -20 32 -12
28 8 -4 5 0 -6 9 -11 9 -19 18 -18 20 3 7 -9 39 -17 45 -4 3 -21 32 -39 65
-18 33 -40 68 -49 78 -9 10 -17 25 -18 34 -2 8 -12 22 -23 30 -12 8 -21 20
-21 26 0 11 -25 46 -64 90 -9 9 -16 20 -17 25 -1 4 -5 6 -11 4 -5 -1 -7 1 -4
6 2 4 -8 22 -22 39 -15 17 -43 51 -62 74 -19 24 -45 53 -57 65 -13 12 -23 27
-23 33 0 7 -4 9 -10 6 -5 -3 -10 1 -10 9 0 9 -7 16 -15 16 -8 0 -15 4 -15 10
0 15 -181 190 -287 277 -12 10 -31 26 -42 36 -12 9 -23 17 -26 17 -3 0 -18 14
-35 31 -16 18 -30 29 -30 25 0 -4 -10 3 -22 14 -13 12 -35 28 -50 36 -16 8
-28 19 -28 24 0 6 -7 10 -15 10 -8 0 -15 5 -15 10 0 6 -7 10 -15 10 -7 0 -18
6 -22 13 -4 8 -24 22 -43 33 -19 10 -39 25 -43 32 -5 7 -12 10 -18 7 -5 -4 -9
-1 -9 4 0 6 -7 11 -15 11 -8 0 -15 5 -15 10 0 6 -7 10 -15 10 -8 0 -15 5 -15
10 0 6 -4 10 -9 10 -6 0 -30 14 -54 30 -25 17 -49 30 -55 30 -5 0 -15 7 -22
15 -7 8 -16 13 -20 10 -4 -2 -17 4 -29 14 -12 10 -36 25 -54 32 -17 7 -36 19
-40 26 -5 7 -12 11 -18 8 -5 -4 -9 -1 -9 4 0 6 -9 11 -20 11 -11 0 -20 4 -20
10 0 5 -3 9 -7 8 -5 -1 -19 4 -33 12 -14 8 -32 15 -40 16 -8 2 -16 8 -18 14
-2 5 -7 8 -12 5 -5 -3 -15 2 -24 11 -9 8 -20 13 -25 10 -5 -3 -11 1 -15 9 -3
9 -12 12 -22 8 -12 -4 -15 -3 -10 5 7 12 -5 16 -31 13 -7 -1 -13 3 -13 9 0 5
-6 10 -14 10 -8 0 -31 9 -53 19 -21 11 -52 25 -70 32 -17 7 -29 18 -26 24 3 5
0 5 -7 -2 -10 -9 -16 -9 -25 1 -7 6 -40 21 -74 31 -33 11 -61 23 -61 27 0 5
-11 8 -24 8 -14 0 -28 5 -31 10 -3 6 -15 10 -26 10 -10 0 -19 4 -19 8 0 5 -7
9 -15 10 -8 1 -22 3 -30 4 -8 1 -15 6 -15 11 0 5 -6 7 -14 4 -8 -3 -16 -2 -18
2 -2 5 -14 12 -27 16 -18 5 -22 4 -16 -6 3 -8 -2 -5 -12 6 -10 11 -25 19 -35
17 -9 -2 -19 2 -23 7 -3 6 -17 11 -30 11 -13 0 -27 5 -30 10 -4 6 -11 8 -16 5
-5 -4 -9 -1 -9 6 0 7 -3 10 -6 6 -3 -3 -18 -1 -33 5 -29 11 -60 19 -78 20 -7
1 -13 5 -13 10 0 4 -13 8 -30 8 -16 0 -30 4 -30 8 0 4 -12 9 -26 10 -14 1 -31
5 -37 9 -13 8 -27 12 -70 18 -15 3 -37 9 -47 15 -11 6 -20 8 -20 5 0 -4 -6 -3
-12 2 -7 4 -19 9 -25 10 -7 2 -21 5 -30 7 -10 3 -26 5 -36 5 -10 1 -16 5 -13
9 3 4 -8 7 -25 6 -16 -1 -29 1 -29 5 0 5 -14 8 -32 9 -17 0 -34 4 -37 9 -3 4
-24 9 -46 11 -22 2 -43 8 -47 15 -4 7 -8 9 -8 6 0 -6 -42 1 -120 18 -14 3 -32
5 -40 6 -8 0 -21 4 -27 10 -7 5 -13 6 -13 3 0 -4 -9 -2 -20 4 -15 8 -20 8 -20
-2 0 -9 -3 -10 -8 -2 -4 6 -14 11 -22 11 -8 1 -33 5 -55 10 -22 6 -48 9 -58 7
-9 -1 -17 2 -17 7 0 5 -5 9 -11 9 -5 0 -7 -6 -3 -12 4 -8 -1 -7 -12 2 -10 9
-31 15 -46 14 -16 0 -28 2 -28 6 0 3 -19 7 -42 9 -23 1 -46 7 -50 14 -6 9 -8
8 -8 -3 0 -10 -3 -11 -8 -4 -4 6 -14 11 -22 12 -35 1 -81 9 -87 15 -11 12 -24
8 -17 -5 6 -10 4 -10 -7 0 -7 6 -28 12 -46 12 -19 0 -33 5 -34 13 0 7 -2 8 -5
1 -2 -5 -19 -8 -37 -6 -17 2 -42 5 -54 6 -12 1 -30 9 -39 17 -12 10 -15 10
-10 1 6 -10 1 -11 -21 -6 -15 4 -43 8 -60 8 -18 0 -33 4 -33 7 0 4 -10 5 -22
1 -14 -3 -19 -1 -14 6 4 7 -3 8 -24 2 -16 -5 -32 -5 -35 0 -3 4 -18 7 -34 6
-17 -1 -28 1 -26 5 3 4 -13 7 -35 7 -22 0 -44 3 -49 7 -5 3 -13 1 -16 -5 -5
-8 -11 -8 -19 -1 -7 6 -44 12 -82 14 -38 2 -75 7 -82 11 -7 4 -12 2 -12 -6 0
-10 -3 -9 -10 2 -5 8 -12 12 -15 8 -4 -3 -20 -2 -36 2 -20 6 -29 5 -29 -3 0
-8 -3 -8 -8 -2 -4 6 -26 10 -49 10 -24 -1 -43 2 -43 5 0 3 -24 6 -53 6 -99 3
-137 8 -137 18 0 6 -4 5 -9 -2 -4 -8 -12 -14 -16 -14 -4 0 -12 6 -16 14 -7 11
-9 11 -9 -1 0 -11 -3 -11 -17 0 -15 12 -16 12 -8 -1 7 -13 6 -13 -7 -2 -12 9
-18 10 -23 2 -4 -7 -11 -7 -18 -2 -7 5 -45 9 -85 10 -41 0 -90 3 -109 7 -27 5
-33 3 -27 -7 6 -10 4 -10 -9 1 -9 7 -17 10 -17 7 0 -4 -8 -3 -17 3 -11 6 -24
6 -35 0 -11 -6 -19 -5 -24 2 -4 8 -9 7 -15 -2 -5 -8 -9 -9 -9 -4 0 6 -28 10
-65 10 -37 0 -65 4 -65 10 0 6 -4 4 -9 -3 -4 -8 -12 -14 -16 -14 -4 0 -12 6
-16 14 -5 7 -9 8 -9 2 0 -10 -49 -10 -117 0 -13 2 -23 -2 -23 -7 0 -7 -4 -7
-12 1 -15 15 -31 16 -22 0 5 -7 3 -8 -7 -2 -7 4 -32 8 -54 7 -22 -1 -43 4 -47
10 -6 9 -8 9 -8 0 0 -7 -7 -13 -16 -13 -9 0 -12 5 -8 12 5 7 3 8 -6 3 -22 -13
-64 -14 -79 -2 -10 8 -13 9 -8 1 4 -7 0 -14 -8 -18 -8 -3 -14 -2 -14 2 3 21
-3 23 -22 6 -11 -10 -20 -14 -19 -9 5 21 -1 27 -14 16 -10 -8 -16 -9 -21 -1
-4 7 -12 7 -26 0 -10 -6 -19 -7 -19 -2 0 4 -9 8 -20 8 -11 0 -20 -3 -20 -7 0
-9 -21 -6 -37 4 -8 5 -13 3 -13 -3 0 -7 -6 -8 -17 -2 -16 8 -39 9 -45 2 -9 -8
-74 -5 -80 4 -5 8 -8 8 -8 -1 0 -13 -18 -12 -39 1 -9 6 -12 5 -8 -1 5 -7 -35
-11 -118 -11 -69 0 -129 -4 -135 -7 -5 -3 -10 -1 -10 5 0 6 -5 8 -11 5 -6 -4
-59 -8 -118 -10 -60 -1 -114 -5 -120 -9 -6 -4 -11 -2 -11 4 0 6 -5 8 -12 3
-18 -11 -52 -10 -60 2 -5 6 -8 6 -8 -1 0 -11 -60 -15 -202 -16 -21 0 -38 -5
-38 -10 0 -6 -7 -5 -15 2 -12 10 -15 10 -16 -1 0 -11 -2 -11 -6 -1 -4 10 -8
10 -21 0 -13 -11 -15 -11 -7 2 6 12 5 13 -5 3 -11 -10 -17 -10 -29 0 -9 7 -12
8 -8 1 4 -8 -3 -12 -21 -12 -77 1 -138 -6 -144 -16 -5 -7 -8 -7 -8 2 0 7 -5
10 -11 6 -7 -4 -46 -9 -87 -11 -46 -2 -79 -8 -84 -16 -6 -9 -8 -9 -8 2 0 9 -4
10 -12 5 -7 -5 -46 -9 -85 -9 -40 0 -73 -3 -73 -7 0 -3 -15 -5 -32 -4 -18 2
-37 1 -43 -2 -5 -3 -27 -7 -50 -8 -64 -3 -67 -3 -59 -16 5 -7 3 -8 -7 -2 -18
11 -28 12 -61 3 -19 -5 -28 -4 -28 4 0 8 -3 7 -9 -2 -5 -7 -14 -10 -20 -7 -6
4 -11 3 -11 -1 0 -5 -10 -9 -22 -10 -13 0 -31 -4 -40 -8 -11 -4 -18 -3 -18 3
0 6 -9 8 -20 5 -11 -3 -18 -8 -16 -12 2 -3 -19 -7 -47 -8 -29 -1 -68 -5 -87
-9 -19 -3 -56 -7 -82 -8 -25 0 -44 -4 -41 -8 2 -5 -11 -8 -30 -8 -18 0 -37 -3
-40 -7 -4 -3 -22 -7 -39 -9 -18 -1 -46 -5 -63 -9 -16 -3 -43 -7 -60 -8 -16 -1
-33 -6 -36 -11 -4 -4 -27 -9 -51 -10 -25 -2 -49 -6 -54 -9 -11 -6 -85 -18
-126 -20 -16 -1 -28 -4 -28 -8 0 -4 -8 -8 -17 -8 -39 -2 -79 -8 -95 -15 -17
-8 -19 -8 -83 -20 -22 -4 -47 -10 -55 -13 -15 -6 -25 -8 -72 -17 -13 -3 -23
-5 -23 -6 0 -1 -7 -3 -15 -5 -19 -5 -36 -9 -135 -35 -44 -12 -84 -22 -90 -23
-5 -2 -16 -6 -23 -11 -7 -4 -16 -5 -19 -2 -3 3 -12 1 -20 -5 -7 -6 -13 -8 -13
-4 0 4 -7 2 -15 -5 -8 -7 -15 -10 -15 -7 0 3 -16 -1 -35 -9 -19 -8 -35 -11
-35 -8 0 4 -7 1 -15 -6 -8 -7 -15 -9 -15 -5 0 4 -7 2 -15 -5 -8 -7 -15 -9 -15
-6 0 4 -6 4 -12 -1 -13 -8 -33 -13 -55 -15 -7 -1 -13 -5 -13 -10 0 -5 -4 -7
-8 -4 -5 3 -20 -1 -35 -9 -15 -8 -27 -11 -27 -8 0 3 -7 0 -15 -7 -9 -7 -18
-10 -21 -7 -4 3 -24 -3 -46 -14 -22 -11 -42 -18 -45 -15 -3 3 -21 -4 -41 -14
-19 -11 -39 -17 -44 -14 -4 3 -8 0 -8 -5 0 -6 -11 -11 -25 -11 -14 0 -25 -5
-25 -12 0 -6 -3 -8 -7 -5 -3 4 -16 1 -27 -6 -12 -8 -29 -13 -38 -11 -9 1 -19
-5 -22 -13 -4 -8 -13 -13 -21 -9 -8 3 -15 1 -15 -5 0 -6 -4 -8 -9 -4 -5 3 -12
1 -16 -5 -4 -6 -11 -8 -16 -5 -5 4 -9 2 -9 -4 0 -9 -57 -27 -73 -23 -5 2 -6
-1 -3 -6 5 -9 -72 -39 -87 -34 -5 1 -6 -2 -2 -8 3 -5 2 -10 -4 -10 -6 0 -35
-11 -65 -25 -30 -14 -60 -25 -66 -25 -6 0 -13 -7 -16 -15 -4 -9 -11 -15 -18
-14 -18 2 -56 -13 -56 -22 0 -5 -8 -9 -19 -9 -10 0 -24 -7 -31 -15 -7 -9 -19
-14 -27 -11 -7 3 -13 1 -13 -4 0 -6 -18 -17 -40 -26 -22 -9 -40 -20 -40 -24 0
-5 -13 -11 -30 -15 -16 -4 -30 -10 -30 -14 0 -5 -22 -19 -50 -32 -27 -13 -50
-27 -50 -31 0 -5 -7 -8 -15 -8 -9 0 -18 -7 -21 -15 -4 -8 -10 -13 -14 -10 -5
3 -15 -2 -23 -10 -9 -8 -18 -15 -22 -15 -3 0 -33 -18 -65 -40 -32 -22 -61 -40
-64 -40 -4 0 -15 -8 -25 -17 -33 -30 -50 -43 -56 -43 -8 0 -97 -71 -106 -84
-4 -5 -12 -5 -18 -2 -6 4 -11 1 -11 -6 0 -7 -22 -29 -48 -48 -26 -19 -57 -46
-69 -59 -13 -13 -23 -21 -23 -18 0 4 -20 -13 -44 -36 -24 -23 -73 -69 -109
-102 -36 -32 -63 -63 -61 -67 3 -4 -1 -8 -8 -8 -12 0 -40 -25 -46 -42 -2 -4
-36 -42 -77 -85 -41 -42 -72 -79 -70 -81 7 -7 -20 -30 -29 -24 -5 3 -6 0 -2
-6 4 -6 -2 -17 -14 -24 -11 -7 -20 -21 -20 -32 0 -11 -3 -16 -6 -13 -6 6 -84
-94 -84 -108 0 -3 -11 -18 -25 -33 -14 -15 -25 -32 -25 -39 0 -7 -4 -13 -10
-13 -5 0 -10 -7 -10 -15 0 -9 -7 -18 -15 -21 -8 -4 -12 -10 -9 -15 3 -5 0 -9
-6 -9 -6 0 -9 -4 -6 -8 3 -5 -2 -18 -12 -28 -9 -11 -18 -26 -20 -34 -2 -8 -9
-18 -15 -22 -7 -4 -7 -8 -2 -8 6 0 1 -7 -9 -15 -11 -8 -17 -15 -13 -15 3 0 -7
-23 -23 -50 -17 -28 -30 -55 -30 -59 0 -19 -27 -60 -35 -53 -5 4 -5 2 -2 -4 4
-6 -2 -30 -13 -52 -11 -23 -20 -46 -20 -52 0 -5 -4 -10 -8 -10 -5 0 -9 -7 -10
-15 -1 -8 -3 -22 -4 -30 -1 -8 -5 -15 -10 -15 -4 0 -7 -3 -6 -7 1 -5 -6 -30
-16 -58 -10 -27 -21 -57 -24 -65 -3 -8 -4 -18 -4 -22 1 -5 -2 -8 -6 -8 -8 0
-10 -7 -14 -50 -1 -11 -6 -20 -11 -20 -4 0 -6 -4 -2 -9 3 -5 1 -12 -4 -16 -5
-3 -10 -13 -10 -23 -1 -26 -7 -54 -18 -82 -6 -14 -9 -35 -8 -47 1 -12 -2 -20
-6 -17 -5 3 -10 -7 -11 -23 -2 -46 -3 -51 -10 -58 -4 -4 -4 -13 -1 -21 3 -8 1
-14 -4 -14 -5 0 -8 -18 -7 -40 1 -22 -3 -37 -7 -34 -7 4 -14 -59 -7 -68 1 -2
-4 -13 -10 -25 -8 -15 -9 -24 -2 -28 7 -4 7 -11 2 -18 -5 -7 -10 -19 -10 -27
-4 -66 -6 -81 -14 -86 -4 -3 -4 -14 2 -24 6 -10 6 -21 2 -24 -5 -3 -8 -30 -8
-60 1 -31 -3 -56 -9 -56 -5 0 -3 -5 5 -10 13 -9 13 -10 0 -10 -13 0 -13 -1 0
-10 8 -5 10 -10 4 -10 -6 0 -9 -13 -6 -31 3 -20 0 -34 -9 -40 -8 -5 -9 -9 -3
-9 12 0 13 -58 0 -78 -4 -6 -3 -12 2 -12 5 0 9 -7 9 -15 0 -8 -5 -15 -11 -15
-7 0 -8 -3 -1 -8 6 -4 11 -16 11 -27 0 -11 -5 -23 -11 -27 -6 -5 -6 -8 2 -8 7
0 11 -11 9 -27 -1 -16 2 -34 8 -42 9 -12 7 -13 -8 -8 -15 6 -17 5 -7 -7 7 -8
13 -72 15 -172 3 -88 5 -159 6 -159 1 0 3 -12 4 -27 1 -16 -2 -28 -7 -28 -4 0
-5 -5 -2 -10 4 -6 9 -8 13 -6 4 2 7 -30 6 -72 0 -43 4 -80 9 -83 5 -4 4 -15
-3 -29 -8 -16 -9 -20 -1 -15 8 4 11 -4 11 -27 -1 -51 4 -82 15 -90 6 -5 5 -8
-4 -8 -9 0 -10 -4 -4 -12 6 -7 11 -26 12 -43 2 -34 8 -80 11 -80 1 0 4 -18 5
-39 2 -21 9 -43 17 -47 11 -7 11 -9 0 -9 -7 0 -10 -5 -7 -11 4 -5 9 -29 12
-52 2 -22 7 -46 11 -51 6 -11 14 -56 16 -93 0 -13 5 -23 9 -23 5 0 6 -4 2 -9
-3 -5 -1 -12 4 -15 5 -4 8 -14 6 -24 -1 -9 2 -26 8 -37 6 -11 12 -27 13 -35 1
-8 6 -35 12 -59 6 -25 8 -49 5 -55 -3 -5 -1 -6 5 -2 11 6 18 -19 13 -46 0 -5
4 -8 10 -8 6 0 9 -9 6 -20 -3 -11 -1 -20 5 -20 5 0 6 -4 3 -10 -3 -5 -2 -10 2
-10 5 0 10 -10 10 -22 1 -13 7 -24 13 -26 5 -2 10 -9 10 -17 0 -7 10 -13 23
-13 12 0 47 -3 77 -7 30 -4 67 -8 83 -10 15 -1 30 -4 33 -8 3 -3 13 -3 21 0 8
3 19 0 24 -8 7 -11 9 -11 9 -1 0 8 5 10 12 5 7 -4 31 -9 53 -10 21 -2 42 -7
45 -11 3 -4 16 -8 30 -8 14 -1 39 -4 55 -8 17 -4 44 -9 60 -12 17 -3 42 -9 58
-14 19 -6 27 -6 27 3 0 9 3 8 8 -1 5 -7 23 -14 40 -15 18 -1 32 -4 32 -7 0 -3
10 -7 23 -8 36 -5 62 -9 62 -11 0 -4 38 -12 55 -13 8 0 20 -4 25 -9 6 -4 28
-9 48 -11 20 -1 37 -5 37 -9 0 -4 8 -8 18 -8 42 -1 58 -4 70 -14 6 -5 12 -7
12 -3 0 3 12 1 28 -5 15 -6 38 -13 52 -15 14 -3 36 -9 50 -14 14 -5 39 -11 55
-14 17 -2 31 -5 33 -5 1 -1 4 0 5 2 2 1 10 -3 18 -9 8 -6 22 -10 32 -9 9 2 17
-1 17 -6 0 -5 10 -9 23 -9 13 0 27 -3 30 -7 6 -6 38 -12 75 -15 6 -1 12 -6 12
-11 0 -6 3 -7 6 -4 4 3 15 2 25 -4 14 -7 19 -6 19 3 0 9 2 10 8 2 4 -6 22 -15
40 -19 21 -4 30 -11 25 -18 -4 -8 -1 -7 9 1 11 9 18 10 23 2 3 -6 10 -8 15 -5
5 3 11 1 15 -4 3 -6 12 -8 19 -5 8 3 17 0 21 -5 3 -6 11 -9 16 -5 5 3 15 1 22
-4 7 -5 20 -8 30 -7 9 2 17 0 17 -5 0 -4 7 -11 16 -14 10 -4 13 -2 8 7 -6 9
-4 9 7 1 8 -5 21 -10 29 -9 8 0 20 -5 27 -11 6 -6 23 -10 37 -9 14 2 26 0 26
-4 0 -4 6 -8 13 -9 39 -3 57 -7 57 -12 0 -5 35 -11 82 -13 9 -1 15 -4 12 -8
-2 -4 13 -10 34 -13 77 -12 85 -15 93 -28 7 -11 9 -11 9 1 0 11 3 11 15 1 8
-6 18 -9 24 -6 5 4 16 -1 25 -10 9 -8 21 -12 26 -9 6 4 19 3 28 -1 9 -4 24 -8
32 -8 8 -1 21 -5 28 -9 6 -5 16 -6 21 -2 5 3 13 0 16 -6 4 -5 13 -8 21 -5 7 3
16 1 19 -5 4 -5 11 -7 16 -3 5 3 17 0 26 -8 14 -11 16 -11 8 2 -8 13 -7 13 8
1 9 -7 17 -10 17 -6 0 4 8 1 17 -6 14 -12 15 -12 9 0 -6 8 0 7 18 -4 14 -10
26 -14 26 -11 0 4 5 4 11 0 7 -4 30 -9 53 -11 22 -2 44 -9 48 -16 6 -9 8 -8 8
3 0 10 3 11 8 4 7 -11 32 -17 117 -30 22 -3 42 -9 45 -12 3 -4 17 -7 33 -7 15
1 27 -2 27 -5 0 -3 17 -6 37 -8 20 -1 41 -8 45 -15 6 -9 8 -9 8 1 0 9 5 10 18
4 9 -5 25 -8 35 -7 9 2 17 -1 17 -5 0 -5 8 -9 18 -9 28 1 67 -7 80 -15 7 -4
12 -2 12 6 0 10 2 10 8 1 4 -7 24 -13 45 -15 20 -1 37 -5 37 -8 0 -3 10 -7 23
-7 29 -2 49 -7 64 -16 6 -4 15 -3 18 3 5 8 11 7 21 -1 8 -6 23 -9 34 -6 11 3
23 1 26 -5 3 -5 12 -7 20 -4 8 3 14 2 14 -2 0 -5 10 -9 23 -9 12 -1 36 -4 52
-6 17 -3 53 -8 80 -12 28 -4 58 -7 68 -7 9 0 17 -2 17 -6 0 -4 12 -7 28 -8 15
0 52 -4 82 -9 30 -4 63 -8 73 -7 9 0 17 -3 17 -7 0 -4 10 -7 23 -6 12 1 32 -2
45 -6 15 -6 22 -5 23 4 0 9 2 9 6 -1 2 -6 9 -10 14 -6 5 3 9 2 9 -3 0 -4 19
-8 43 -7 23 0 47 -2 52 -5 10 -6 63 -12 102 -12 12 1 25 -4 28 -10 5 -7 11 -6
21 2 11 9 14 8 14 -2 0 -10 3 -10 12 -1 7 7 16 8 22 2 6 -4 39 -10 73 -12 34
-1 59 -6 57 -10 -8 -13 11 -9 24 4 8 8 12 8 12 1 0 -6 21 -11 48 -13 70 -3 97
-6 108 -11 5 -3 23 -5 39 -5 17 1 33 -3 37 -9 5 -6 8 -5 8 4 0 10 6 10 26 -4
15 -9 23 -12 20 -6 -4 6 0 11 9 11 9 0 14 -3 12 -7 -3 -5 18 -7 46 -7 29 1 62
-2 75 -7 17 -7 21 -6 16 3 -5 8 -2 9 12 4 10 -5 26 -8 34 -9 8 0 20 -4 27 -9
7 -5 14 -5 18 2 4 7 12 7 26 0 13 -8 19 -7 19 0 0 6 4 8 10 5 20 -12 50 -14
50 -2 0 8 3 7 9 -2 5 -7 14 -10 20 -7 6 4 11 1 12 -6 0 -10 2 -10 6 0 2 6 9 9
15 6 6 -4 53 -8 105 -10 52 -1 97 -5 101 -8 3 -3 11 -1 19 5 7 7 13 7 13 2 0
-5 15 -10 33 -10 120 -1 309 -11 314 -16 3 -4 12 -2 20 4 9 9 13 8 13 0 0 -8
5 -9 19 -1 12 6 22 6 25 1 7 -11 25 -9 45 3 9 6 12 5 7 -2 -4 -7 12 -10 49 -8
30 0 55 -2 55 -6 0 -3 13 -3 28 2 16 4 36 4 45 -2 11 -6 17 -5 17 2 0 6 5 8
11 5 15 -10 473 -10 487 -1 7 4 12 1 13 -6 0 -9 2 -9 5 -1 4 8 14 9 35 3 20
-6 29 -5 30 3 0 9 2 9 5 1 3 -7 14 -10 24 -7 12 3 17 10 13 17 -5 8 -3 8 8 0
18 -14 70 -24 63 -12 -3 5 6 6 22 2 21 -6 25 -4 19 7 -5 8 0 7 11 -3 16 -14
23 -15 32 -6 7 7 12 8 12 4 0 -5 6 -3 14 3 10 9 16 9 21 1 5 -8 11 -7 23 2 12
10 14 10 8 1 -9 -16 6 -17 22 -1 9 9 12 9 12 0 0 -13 26 -12 48 1 7 5 12 3 12
-4 0 -8 4 -8 15 1 12 10 15 10 15 0 0 -10 3 -10 15 0 8 7 15 9 15 4 0 -5 11
-9 25 -9 14 0 25 3 25 7 0 8 21 5 38 -5 6 -5 12 -5 12 0 0 4 33 8 73 8 39 0
88 2 107 5 19 4 48 3 63 -1 21 -6 26 -5 18 4 -7 9 3 12 39 11 26 -1 53 -5 59
-8 6 -4 11 -4 11 1 0 4 38 8 85 8 69 0 84 3 80 14 -4 11 -3 11 9 2 9 -7 24
-10 37 -6 16 6 20 4 13 -6 -6 -12 -5 -12 9 0 9 7 17 10 17 5 0 -5 5 -2 10 6 5
8 10 10 10 4 0 -9 26 -10 125 0 23 2 43 -1 47 -8 5 -7 8 -6 8 4 0 11 14 15 58
17 120 3 142 6 142 15 0 6 7 5 15 -2 8 -7 15 -9 15 -4 0 5 21 9 48 8 26 0 54
3 63 7 9 5 21 3 27 -3 7 -7 12 -8 12 -2 0 10 19 13 103 15 20 1 40 6 43 11 3
5 11 5 19 -2 8 -7 15 -7 19 -1 4 5 18 8 31 5 14 -2 25 -1 25 3 0 5 19 7 42 7
24 -1 50 3 58 9 8 6 -269 -274 -617 -622 -458 -460 -635 -631 -645 -625 -18
12 -31 12 -45 1 -9 -6 -13 -5 -13 4 0 12 -2 12 -9 0 -6 -9 -11 -10 -15 -2 -4
6 -15 7 -29 2 -12 -4 -55 -7 -94 -7 -40 1 -73 -3 -73 -8 0 -6 -5 -5 -11 1 -7
7 -21 8 -40 3 -20 -6 -29 -5 -30 3 0 7 -2 8 -5 2 -2 -6 -47 -9 -109 -9 -69 1
-102 -2 -98 -9 4 -6 1 -7 -8 -2 -20 13 -51 14 -73 3 -12 -7 -16 -7 -12 0 4 6
-2 10 -14 9 -11 -1 -20 -5 -20 -10 0 -4 -4 -5 -10 -2 -17 11 -50 14 -50 5 0
-5 -13 -5 -28 0 -17 4 -36 4 -47 -2 -12 -8 -20 -7 -26 3 -5 8 -9 9 -9 3 0 -6
-7 -11 -15 -11 -8 0 -15 4 -15 9 0 5 -5 6 -12 2 -15 -9 -308 -11 -308 -2 0 4
-12 3 -27 -3 -19 -7 -29 -7 -31 0 -2 7 -12 7 -30 0 -19 -7 -28 -7 -30 1 -3 8
-8 8 -17 0 -9 -8 -15 -8 -20 0 -4 7 -12 7 -26 0 -10 -6 -19 -7 -19 -2 0 12
-43 9 -52 -3 -5 -7 -8 -7 -8 0 0 6 -18 10 -40 11 -25 0 -37 -3 -33 -10 3 -6 0
-5 -8 2 -7 6 -19 12 -27 12 -8 0 -10 -5 -6 -12 6 -10 5 -10 -7 -1 -8 6 -29 10
-47 9 -17 -1 -32 3 -33 8 0 6 -3 6 -5 -1 -3 -7 -12 -9 -20 -6 -8 3 -54 6 -102
7 -48 1 -93 5 -99 9 -7 5 -13 4 -13 -1 0 -10 -50 -9 -68 2 -7 4 -12 2 -12 -4
0 -7 -5 -8 -12 -3 -18 11 -32 10 -40 -2 -5 -7 -8 -6 -8 1 0 11 -47 15 -217 18
-35 0 -63 3 -63 6 0 3 -9 6 -20 7 -13 1 -18 -2 -14 -9 5 -7 2 -8 -6 -3 -15 9
-44 13 -120 16 -30 1 -61 6 -67 12 -9 6 -13 6 -13 -3 0 -9 -4 -9 -17 1 -14 12
-16 12 -8 0 6 -11 5 -12 -6 -5 -8 5 -30 9 -49 10 -19 1 -58 3 -87 5 -29 1 -50
6 -47 11 3 4 -6 4 -20 -2 -14 -5 -26 -6 -26 -2 0 4 -15 8 -32 9 -57 2 -103 9
-117 17 -10 7 -12 5 -6 -4 6 -9 4 -11 -6 -5 -7 5 -33 10 -57 11 -24 1 -50 8
-59 16 -14 11 -15 11 -9 -1 7 -11 0 -12 -35 -5 -24 4 -61 8 -81 8 -21 1 -38 4
-38 7 0 3 -10 5 -22 4 -13 -1 -27 0 -33 3 -17 11 -45 9 -45 -2 0 -8 -3 -8 -8
-1 -7 10 -53 18 -119 19 -18 0 -33 3 -33 7 0 4 -10 7 -22 7 -43 0 -105 9 -118
17 -9 6 -11 4 -5 -6 5 -8 0 -7 -11 3 -16 14 -23 15 -32 6 -8 -8 -12 -9 -12 -1
0 6 -9 9 -22 5 -15 -4 -19 -2 -13 7 6 10 3 11 -12 2 -12 -6 -24 -6 -29 -1 -5
5 -33 10 -61 12 -29 2 -53 6 -53 9 0 3 -19 5 -42 5 -32 1 -42 4 -40 15 3 10 1
11 -8 3 -8 -8 -22 -9 -46 -2 -19 5 -39 6 -44 3 -6 -3 -10 -2 -10 3 0 5 -12 7
-26 4 -15 -3 -24 -1 -21 4 3 5 -14 10 -36 10 -44 2 -80 9 -97 19 -6 3 -10 0
-10 -7 0 -11 -2 -11 -9 0 -4 7 -23 14 -42 14 -19 0 -40 5 -46 11 -9 6 -13 6
-13 -2 0 -8 -5 -7 -15 3 -9 8 -22 13 -29 10 -8 -3 -17 -1 -21 5 -4 8 -12 8
-25 1 -12 -7 -20 -6 -22 1 -2 5 -20 11 -41 12 -20 1 -37 4 -37 7 0 3 -19 6
-42 8 -23 1 -45 6 -48 10 -3 4 -28 8 -57 7 -28 0 -51 4 -50 9 1 5 -13 10 -32
12 -18 1 -38 7 -44 13 -7 7 -15 7 -24 0 -9 -8 -13 -8 -13 -1 0 6 -9 9 -20 7
-11 -2 -20 0 -20 5 0 5 -7 6 -17 3 -10 -4 -14 -2 -10 4 7 11 -22 11 -42 -2 -9
-5 -12 -4 -8 2 4 7 -8 14 -31 19 -20 4 -41 8 -47 10 -10 2 -60 13 -82 18 -7 1
-15 5 -19 8 -3 4 -13 4 -21 1 -8 -3 -19 0 -24 8 -7 11 -9 11 -9 1 0 -7 -5 -10
-10 -7 -6 4 -8 9 -6 13 2 4 -16 7 -40 6 -23 0 -41 3 -38 8 3 4 -9 8 -27 8 -28
0 -62 8 -119 28 -8 3 -24 6 -35 7 -11 0 -24 3 -30 7 -14 8 -78 22 -89 20 -4
-2 -14 2 -20 7 -7 6 -27 11 -44 13 -18 1 -32 5 -32 8 0 3 -11 7 -26 8 -14 1
-34 7 -45 12 -13 8 -19 8 -19 0 0 -7 -7 -5 -15 4 -8 8 -24 13 -35 11 -11 -2
-20 0 -20 6 0 5 -18 9 -40 9 -22 0 -40 4 -40 9 0 5 -15 11 -32 15 -18 3 -44 8
-58 11 -14 3 -31 6 -37 7 -7 1 -13 5 -13 10 0 5 -6 8 -12 6 -7 -1 -38 4 -68
12 -30 8 -58 15 -62 16 -5 1 -9 2 -10 4 -6 4 -44 12 -65 13 -12 0 -19 5 -16
11 4 5 -1 7 -10 3 -9 -3 -19 -2 -22 3 -3 5 -12 7 -20 3 -8 -3 -15 0 -15 7 0 7
-7 10 -15 7 -8 -4 -17 -2 -20 3 -3 4 -16 7 -30 5 -14 -1 -28 2 -31 6 -3 5 -16
9 -30 9 -13 0 -24 4 -24 8 0 4 -14 9 -32 10 -18 2 -35 6 -38 10 -3 4 -14 7
-25 7 -11 0 -29 4 -40 9 -11 6 -33 12 -50 14 -16 2 -36 8 -42 14 -9 8 -13 7
-13 -3 -1 -10 -3 -10 -10 2 -5 9 -19 15 -32 14 -13 -1 -25 1 -28 5 -3 4 -23
10 -45 12 -22 3 -49 9 -60 15 -11 5 -30 8 -42 7 -13 0 -23 3 -23 7 0 5 -16 9
-35 9 -19 0 -35 4 -35 9 0 4 -18 8 -39 7 -22 -1 -39 2 -38 7 1 5 -15 11 -37
13 -21 2 -45 9 -52 15 -11 9 -14 9 -14 0 0 -8 -5 -9 -19 -2 -10 6 -21 8 -24 4
-4 -3 -14 0 -24 8 -15 12 -16 12 -8 -1 7 -12 6 -13 -6 -4 -21 16 -69 23 -70
10 0 -7 -3 -6 -6 2 -2 6 -9 10 -14 6 -5 -3 -9 -1 -9 3 0 5 -15 9 -32 10 -40 2
-59 6 -75 16 -8 5 -13 3 -13 -4 0 -8 -4 -8 -12 -2 -7 5 -32 9 -56 8 -24 0 -46
3 -48 7 -3 4 -10 8 -15 8 -6 0 -7 -6 -3 -12 6 -10 4 -10 -7 -2 -15 12 -36 13
-171 13 -141 0 -148 -1 -141 -12 4 -6 1 -7 -8 -1 -19 12 -33 12 -41 -1 -5 -7
-8 -7 -8 0 0 6 -12 10 -27 9 -16 -1 -28 -3 -28 -4 0 -1 -13 -3 -30 -5 -16 -1
-46 -6 -65 -9 -19 -4 -48 -8 -65 -10 -47 -6 -59 -10 -67 -21 -5 -6 -8 -5 -8 2
0 9 -7 10 -24 3 -13 -5 -27 -6 -30 -3 -3 4 -6 1 -6 -6 0 -7 -7 -11 -15 -8 -8
4 -17 2 -21 -4 -3 -6 -12 -8 -20 -5 -8 3 -14 1 -14 -5 0 -6 -5 -7 -11 -3 -6 3
-14 2 -18 -4 -3 -6 -20 -13 -36 -16 -16 -3 -31 -10 -33 -16 -2 -5 -8 -8 -13
-4 -5 3 -23 -4 -39 -16 -17 -12 -30 -18 -30 -15 0 3 -13 -3 -29 -14 -16 -12
-34 -21 -40 -21 -6 0 -11 -5 -11 -11 0 -5 -5 -7 -10 -4 -6 3 -13 -1 -16 -9 -3
-9 -12 -16 -19 -16 -7 0 -15 -7 -19 -15 -3 -8 -11 -15 -19 -15 -7 0 -23 -10
-34 -22 -11 -13 -29 -30 -39 -39 -30 -25 -108 -113 -109 -122 0 -5 -8 -15 -18
-22 -10 -7 -19 -17 -20 -22 -1 -4 -6 -7 -10 -5 -5 1 -6 -2 -2 -8 3 -6 -3 -22
-14 -36 -11 -15 -19 -30 -16 -34 3 -4 -2 -10 -10 -14 -8 -3 -15 -12 -15 -21 0
-8 -4 -15 -10 -15 -5 0 -9 -3 -9 -7 3 -21 -2 -33 -13 -27 -7 4 -8 3 -4 -5 4
-6 0 -23 -9 -38 -12 -18 -13 -23 -4 -18 8 3 6 0 -3 -8 -10 -8 -15 -17 -12 -20
3 -3 -11 -3 -32 -1 -22 3 -55 7 -74 10 -90 11 -120 17 -120 23 0 4 -16 7 -35
6 -19 0 -35 3 -35 7 0 4 -3 7 -7 7 -5 -1 -11 0 -15 1 -10 3 -41 7 -69 9 -11 0
-18 5 -14 10 3 6 -4 8 -16 6 -13 -3 -29 1 -36 7 -8 6 -27 13 -43 15 -43 4 -54
7 -60 15 -3 4 -15 9 -25 11 -11 2 -31 9 -45 17 -14 7 -26 13 -27 12 -8 -5 -63
12 -63 19 0 5 -7 9 -16 9 -9 0 -37 10 -63 23 -25 13 -49 24 -54 25 -23 3 -77
27 -77 34 0 5 -8 8 -17 6 -11 -2 -17 2 -15 10 1 7 -3 12 -10 10 -7 -1 -27 5
-44 15 -17 9 -34 13 -38 10 -3 -4 -6 -1 -6 5 0 6 -20 20 -44 30 -24 11 -47 25
-50 31 -4 6 -12 9 -17 6 -5 -4 -9 -2 -9 3 0 5 -22 19 -50 32 -27 13 -50 29
-50 36 0 8 -6 11 -15 8 -8 -4 -15 -1 -15 5 0 6 -7 11 -15 11 -8 0 -15 5 -15
10 0 6 -7 10 -15 10 -8 0 -15 3 -15 8 0 4 -20 18 -44 32 -25 13 -43 28 -40 32
3 4 -1 8 -9 8 -7 0 -23 9 -35 20 -12 11 -26 20 -32 20 -6 0 -8 5 -5 10 3 6 0
10 -7 10 -8 0 -28 13 -46 29 -17 17 -32 28 -32 25 0 -3 -13 8 -28 23 -15 15
-44 41 -64 57 -20 17 -35 34 -32 38 3 4 -2 8 -11 8 -17 0 -286 266 -277 275 3
3 -2 5 -12 5 -9 0 -15 4 -12 9 4 5 2 11 -3 13 -17 7 -110 126 -103 133 4 5 2
5 -4 2 -6 -3 -17 4 -25 15 -8 12 -22 30 -31 40 -10 10 -18 23 -18 28 0 6 -4
10 -8 10 -4 0 -16 15 -27 33 -10 17 -24 36 -32 40 -7 4 -13 15 -13 22 0 8 -4
15 -10 15 -5 0 -10 5 -10 11 0 6 -6 16 -12 24 -26 26 -48 55 -43 55 5 0 -4 13
-32 45 -7 7 -13 17 -13 21 0 4 -11 22 -25 39 -13 18 -21 35 -18 39 4 3 2 6 -3
6 -5 0 -18 17 -29 38 -11 20 -26 43 -32 50 -7 7 -13 20 -13 28 0 8 -4 14 -10
14 -5 0 -10 7 -10 15 0 8 -4 15 -9 15 -10 0 -21 27 -20 44 0 5 -5 12 -13 17
-7 5 -13 13 -13 19 0 6 -7 15 -15 20 -8 5 -12 10 -7 10 8 0 -42 102 -55 111
-5 3 -10 16 -13 29 -2 12 -11 30 -19 39 -18 20 -56 101 -56 118 0 7 -4 13 -10
13 -5 0 -10 9 -10 19 0 11 -6 26 -12 33 -7 7 -14 20 -16 28 -2 8 -15 40 -29
70 -14 30 -26 60 -26 67 0 7 -6 14 -13 17 -8 3 -11 12 -8 21 3 8 1 15 -5 15
-6 0 -11 11 -11 25 0 14 -4 25 -9 25 -7 0 -24 56 -18 63 1 1 -6 13 -16 27 -9
13 -17 32 -17 42 0 10 -5 18 -12 18 -6 0 -9 3 -5 6 3 4 -1 23 -9 43 -9 20 -17
41 -18 46 -1 6 -9 26 -18 45 -9 19 -20 49 -24 65 -4 17 -8 33 -9 38 -2 4 -3
16 -4 28 0 11 -5 18 -10 15 -5 -3 -11 7 -14 22 -10 53 -17 76 -24 81 -8 6 -11
20 -16 68 -1 13 -5 23 -9 23 -5 0 -8 8 -8 18 0 10 -3 22 -7 26 -7 6 -12 24
-17 56 -1 9 -5 20 -9 26 -3 6 -8 25 -9 43 -1 17 -5 31 -9 31 -5 0 -14 33 -24
95 -1 6 -7 21 -13 35 -9 22 3 51 102 245 1114 2179 2888 4035 5031 5267 2046
1176 4405 1766 6745 1688z m9101 -4217 c747 -829 1377 -1737 1875 -2700 84
-161 104 -208 102 -237 -1 -20 -6 -36 -10 -36 -4 0 -7 -3 -7 -7 1 -5 0 -10 -1
-13 -1 -3 -3 -14 -5 -25 -7 -44 -15 -68 -27 -83 -11 -13 -11 -14 0 -8 11 7 12
4 3 -12 -6 -11 -11 -30 -11 -41 0 -12 -4 -21 -9 -21 -4 0 -8 -10 -8 -22 0 -13
-5 -36 -12 -53 -12 -27 -18 -48 -25 -82 -1 -7 -5 -16 -9 -19 -4 -4 -7 -18 -7
-31 0 -13 -4 -23 -8 -23 -4 0 -8 -10 -9 -22 -1 -11 -6 -24 -11 -27 -5 -3 -8
-16 -7 -28 1 -13 -2 -23 -5 -23 -7 0 -14 -24 -26 -84 -3 -11 -9 -25 -15 -32
-6 -7 -8 -18 -4 -24 3 -5 0 -12 -7 -15 -8 -3 -15 -15 -15 -27 -1 -12 -7 -24
-13 -28 -6 -4 -10 -11 -8 -16 1 -5 -4 -25 -11 -44 -8 -19 -15 -38 -16 -42 -1
-5 -4 -11 -5 -15 -1 -5 -2 -11 -1 -15 0 -5 -4 -8 -10 -8 -6 0 -9 -6 -6 -14 3
-8 -1 -20 -8 -26 -8 -7 -12 -17 -9 -22 4 -6 2 -13 -4 -17 -7 -4 -13 -16 -15
-26 -2 -11 -11 -35 -20 -53 -10 -18 -15 -38 -11 -44 4 -6 3 -8 -3 -5 -12 7
-35 -47 -26 -57 4 -3 0 -6 -7 -6 -7 0 -10 -3 -7 -7 4 -3 1 -13 -7 -22 -8 -9
-16 -20 -17 -26 -8 -35 -12 -45 -20 -45 -5 0 -6 -6 -3 -14 3 -7 -2 -16 -10
-19 -9 -4 -13 -13 -10 -22 3 -8 1 -15 -5 -15 -6 0 -10 -3 -9 -7 3 -13 -25 -63
-34 -63 -5 0 -6 -5 -3 -10 3 -6 -2 -22 -12 -38 -10 -15 -34 -57 -53 -94 -18
-38 -37 -68 -42 -68 -4 0 -5 -7 -2 -15 4 -8 1 -15 -6 -15 -7 0 -10 -6 -7 -13
3 -8 -3 -20 -14 -28 -10 -7 -19 -17 -19 -22 0 -5 -9 -21 -20 -37 -11 -15 -17
-30 -13 -34 3 -3 1 -6 -5 -6 -10 0 -28 -27 -51 -77 -6 -13 -15 -23 -21 -23 -5
0 -9 -3 -8 -7 3 -10 -28 -69 -48 -91 -31 -35 -84 -113 -84 -122 0 -6 -4 -10
-10 -10 -5 0 -10 -7 -10 -16 0 -9 -5 -12 -12 -8 -8 5 -9 2 -5 -9 4 -11 1 -17
-8 -17 -8 0 -14 -4 -12 -9 1 -5 -10 -22 -24 -38 -14 -16 -30 -37 -35 -45 -9
-17 -69 -88 -116 -139 -15 -16 -25 -29 -21 -29 3 0 -6 -11 -21 -25 -15 -14
-25 -25 -22 -25 4 0 -2 -8 -11 -18 -10 -11 -21 -17 -25 -15 -5 2 -8 -3 -8 -12
0 -9 -4 -13 -10 -10 -5 3 -10 1 -10 -4 0 -14 -37 -51 -50 -51 -5 0 -9 -4 -7
-8 2 -9 -152 -162 -165 -162 -4 0 -8 -7 -8 -15 0 -8 -3 -14 -7 -13 -8 3 -63
-42 -91 -74 -9 -9 -19 -15 -24 -12 -4 3 -8 0 -8 -6 0 -6 -11 -15 -25 -22 -13
-6 -22 -15 -19 -19 3 -5 -2 -9 -11 -9 -8 0 -18 -7 -21 -15 -4 -8 -12 -15 -20
-15 -8 0 -14 -3 -14 -7 0 -5 -30 -28 -68 -53 -37 -25 -68 -48 -70 -52 -2 -5
-8 -8 -13 -8 -6 0 -19 -9 -31 -20 -12 -11 -28 -20 -35 -20 -7 0 -13 -4 -13
-10 0 -5 -5 -10 -10 -10 -6 0 -29 -12 -53 -27 -23 -15 -45 -27 -49 -28 -4 0
-13 -6 -20 -12 -6 -7 -18 -13 -25 -13 -7 0 -13 -4 -13 -10 0 -5 -9 -10 -20
-10 -10 0 -23 -8 -29 -17 -5 -10 -13 -17 -18 -16 -4 2 -39 -13 -78 -32 -64
-31 -122 -57 -135 -59 -3 -1 -12 -6 -20 -11 -8 -5 -21 -10 -29 -12 -8 -1 -17
-5 -20 -10 -3 -4 -10 -8 -16 -9 -23 -1 -65 -17 -65 -24 0 -5 -11 -7 -24 -6
-14 2 -27 -3 -30 -10 -3 -8 -12 -11 -21 -8 -8 3 -15 2 -15 -3 0 -5 -6 -10 -12
-11 -18 -1 -38 -6 -78 -20 -62 -21 -137 -39 -159 -37 -11 1 -21 -2 -21 -7 0
-5 -4 -7 -9 -3 -5 3 -12 1 -15 -4 -4 -5 -14 -8 -24 -6 -9 1 -23 -2 -29 -8 -7
-5 -13 -7 -13 -4 0 3 -15 1 -32 -5 -18 -5 -51 -11 -73 -13 -22 -2 -40 -4 -40
-5 0 -3 -51 -9 -140 -14 -49 -4 -99 -8 -110 -10 -19 -3 -55 27 -55 46 0 4 -8
8 -17 8 -15 0 -16 2 -3 10 8 5 10 10 4 10 -6 0 -35 25 -64 55 -30 30 -57 52
-62 49 -4 -3 -8 0 -8 7 0 12 -49 59 -62 59 -4 0 -14 8 -24 18 -10 9 -21 17
-25 17 -5 0 -17 8 -29 17 -11 10 -20 14 -20 10 0 -4 -7 1 -15 12 -7 10 -18 15
-24 11 -6 -3 -11 -2 -11 3 0 4 -16 14 -35 22 -19 8 -35 18 -35 24 0 5 -3 6 -6
3 -4 -3 -16 -2 -26 4 -53 29 -224 80 -271 83 -10 0 -16 5 -13 11 2 7 -7 10
-25 7 -16 -2 -35 1 -43 7 -11 9 -16 9 -21 0 -5 -7 -10 -8 -14 -1 -4 6 -28 12
-54 13 -27 2 -51 7 -53 11 -3 5 -12 4 -20 -3 -8 -7 -14 -7 -14 -1 0 5 -22 9
-50 8 -27 -1 -50 2 -50 6 0 4 -11 3 -25 -2 -13 -5 -26 -6 -29 -2 -2 4 -31 7
-65 6 -33 -1 -58 3 -55 7 3 5 -6 5 -20 -1 -13 -5 -26 -5 -28 -1 -2 5 -18 6
-35 4 -20 -3 -31 -10 -27 -17 3 -6 0 -4 -8 4 -14 16 -43 26 -34 11 3 -5 -8 -8
-24 -7 -17 0 -30 5 -30 11 0 5 -4 4 -9 -4 -8 -12 -12 -13 -25 -1 -14 11 -16
11 -11 -1 4 -11 -10 -14 -67 -15 -40 -1 -83 -4 -95 -7 -14 -4 -23 -1 -23 6 0
8 -3 8 -9 -1 -4 -7 -28 -14 -54 -15 -28 -1 -43 -5 -40 -12 3 -5 0 -4 -7 2 -9
8 -18 9 -25 3 -6 -5 -29 -10 -50 -11 -22 -1 -48 -7 -59 -12 -14 -7 -17 -6 -10
5 6 10 5 11 -7 2 -8 -6 -22 -10 -31 -9 -10 2 -18 -1 -18 -7 0 -6 -6 -5 -15 2
-8 7 -15 8 -15 3 0 -5 -6 -10 -12 -10 -42 -1 -103 -15 -110 -25 -6 -10 -8 -10
-8 0 0 7 -5 10 -10 7 -13 -8 -66 -17 -107 -19 -17 0 -29 -5 -26 -10 4 -5 -3
-7 -15 -4 -12 4 -22 3 -22 -2 0 -4 -13 -6 -30 -5 -16 1 -30 -1 -30 -6 0 -4 -8
-8 -17 -8 -43 -1 -59 -4 -70 -14 -9 -6 -13 -5 -13 4 0 9 -3 10 -8 4 -8 -11
-22 -15 -64 -18 -15 -1 -28 -4 -28 -7 0 -3 -8 -6 -18 -7 -31 -2 -47 -8 -54
-18 -5 -6 -8 -5 -8 3 0 8 -5 10 -12 5 -13 -8 -29 -12 -60 -15 -10 -1 -18 -5
-18 -8 0 -3 -12 -5 -27 -5 -16 1 -34 -4 -42 -9 -12 -9 -13 -8 -6 4 8 13 6 13
-8 2 -9 -8 -26 -15 -39 -17 -38 -6 -70 -14 -76 -20 -3 -2 -11 0 -17 5 -9 8
-14 6 -18 -5 -4 -8 -13 -12 -22 -9 -8 4 -22 1 -30 -6 -12 -10 -15 -10 -15 0 0
9 -4 10 -13 2 -7 -6 -31 -12 -52 -14 -22 -2 -42 -6 -45 -10 -3 -3 -30 -9 -60
-13 -30 -4 -57 -11 -58 -16 -2 -5 -8 -6 -13 -3 -6 3 -18 3 -27 -1 -9 -4 -35
-9 -57 -11 -21 -3 -41 -8 -45 -12 -3 -4 -23 -8 -45 -10 -22 -1 -47 -5 -55 -9
-8 -3 -24 -7 -35 -8 -11 -2 -36 -6 -55 -10 -19 -4 -41 -7 -47 -7 -7 -1 -13 -6
-13 -12 0 -6 -5 -4 -10 4 -7 11 -10 11 -10 2 0 -7 -4 -11 -9 -8 -5 4 -22 1
-37 -5 -24 -9 -49 -13 -117 -18 -5 -1 -6 -4 -4 -8 3 -5 -14 -8 -36 -7 -23 0
-47 -3 -52 -7 -6 -5 -29 -9 -50 -10 -22 -1 -44 -5 -50 -8 -5 -2 -18 -6 -30 -8
-11 -1 -33 -5 -50 -8 -16 -3 -41 -7 -55 -8 -14 -1 -29 -5 -35 -8 -5 -4 -18 -5
-27 -4 -10 2 -18 0 -18 -4 0 -4 -20 -7 -44 -6 -24 0 -42 -3 -40 -7 5 -7 -9 -9
-78 -12 -14 0 -25 -4 -22 -7 3 -5 -45 -11 -93 -11 -13 0 -23 -3 -23 -7 0 -4
-10 -7 -22 -6 -13 1 -28 -2 -35 -7 -7 -6 -19 -5 -33 2 -16 8 -21 8 -25 -3 -3
-7 -18 -12 -35 -11 -17 1 -33 -2 -36 -7 -3 -5 -14 -4 -26 2 -15 8 -19 8 -14 0
7 -10 -18 -14 -86 -14 -10 0 -18 -3 -18 -6 0 -6 -21 -9 -100 -15 -14 -1 -30
-5 -35 -8 -6 -3 -25 -6 -43 -6 -17 0 -42 -4 -53 -7 -16 -5 -20 -4 -15 6 4 8 0
5 -8 -5 -9 -11 -16 -14 -16 -7 0 7 -5 9 -12 4 -7 -4 -29 -8 -48 -9 -19 -1 -36
-3 -37 -4 -2 -1 -13 -3 -25 -3 -13 -1 -26 -6 -30 -11 -5 -7 -8 -6 -8 2 0 8 -5
10 -12 5 -7 -4 -26 -8 -42 -9 -25 -2 69 96 655 682 376 376 688 683 694 682 5
-1 29 2 52 6 24 4 46 7 49 6 4 -1 11 4 15 12 7 11 9 11 9 -1 0 -9 4 -10 13 -3
13 11 74 24 125 26 17 0 32 5 32 10 0 5 3 6 7 3 3 -4 12 -2 20 4 7 6 13 9 13
6 0 -2 30 2 66 9 36 8 70 12 74 9 5 -3 10 0 12 5 2 6 20 12 41 13 20 1 37 5
37 10 0 4 3 6 8 5 7 -2 93 10 127 18 11 3 26 6 33 6 6 1 12 5 12 9 0 5 7 6 15
3 8 -4 23 -3 33 1 9 4 33 10 52 12 19 2 40 8 46 14 8 7 13 6 16 -3 4 -10 8
-10 19 -1 8 6 28 15 44 18 30 6 81 16 100 19 6 1 15 4 20 7 6 3 24 5 42 5 17
-1 29 2 27 6 -4 7 5 8 59 9 15 1 27 5 27 9 0 5 9 7 20 5 11 -2 20 0 20 4 0 5
10 7 23 7 12 -1 27 0 32 3 6 3 17 7 25 8 43 8 87 14 105 16 11 2 25 5 30 9 6
3 18 4 28 3 9 -2 17 1 17 6 0 5 13 7 29 4 17 -3 33 -1 36 5 3 5 22 10 41 10
20 0 34 5 35 13 0 9 2 9 6 -1 2 -6 10 -9 15 -6 6 4 27 9 47 11 19 2 40 7 46
11 5 4 31 7 57 7 27 0 48 3 48 8 0 4 11 5 25 1 14 -3 25 -2 25 3 0 5 22 9 49
9 27 -1 47 2 45 5 -2 4 6 7 19 8 66 2 97 7 97 16 0 5 5 3 10 -5 5 -8 10 -10
10 -3 0 13 18 12 39 -1 10 -6 12 -5 7 2 -5 8 0 11 16 8 13 -2 33 0 44 5 13 4
26 3 33 -4 7 -7 11 -7 11 -1 0 6 15 11 33 12 152 7 180 11 183 30 0 4 6 20 12
35 7 16 12 35 12 43 0 8 4 14 10 14 5 0 9 3 8 8 -4 16 14 72 23 72 6 0 8 3 6
8 -3 4 0 18 6 32 5 14 11 30 11 35 1 6 8 30 16 55 7 25 15 54 17 65 2 10 7 22
11 25 4 3 8 16 10 30 1 14 3 31 4 38 1 6 5 12 10 12 5 0 6 11 4 25 -3 14 -1
25 3 25 4 0 8 6 9 13 2 22 7 42 16 56 7 10 5 12 -3 6 -10 -6 -11 -3 -1 15 15
28 23 65 24 112 1 20 4 34 9 31 4 -2 7 -1 8 4 7 82 10 108 17 112 4 4 8 24 10
46 1 22 3 50 4 63 1 12 6 22 11 22 5 0 4 6 -2 14 -9 10 -9 16 -1 21 6 4 8 16
4 27 -3 11 -2 18 3 15 5 -3 8 15 8 39 0 24 2 44 5 44 3 0 5 19 5 43 0 23 4 45
10 50 6 4 5 11 -5 17 -8 5 -10 10 -4 10 7 0 10 13 9 33 -2 17 0 36 3 42 12 19
11 56 -1 48 -7 -4 -7 0 1 10 8 9 12 29 11 44 -2 15 -1 33 2 38 2 6 4 45 4 87
0 43 4 78 9 78 5 0 3 6 -3 14 -9 11 -9 16 0 21 8 6 7 10 -2 16 -12 7 -12 9 0
9 10 0 11 3 2 14 -8 10 -9 16 -1 21 5 3 10 11 10 16 0 6 -5 7 -12 3 -7 -5 -8
-3 -2 7 12 20 14 38 3 45 -6 3 -6 10 -1 17 13 16 11 50 -2 59 -8 5 -7 8 2 8
15 0 14 89 -2 109 -8 11 -8 13 2 7 8 -5 11 -1 9 13 -2 11 -6 24 -10 27 -4 4
-2 13 4 20 7 8 7 14 -1 19 -7 4 -7 12 0 25 7 13 7 21 -1 26 -8 4 -7 9 2 15 11
7 11 9 1 9 -9 0 -10 5 -3 19 6 10 7 21 3 25 -3 4 -7 24 -8 44 -4 87 -10 122
-19 122 -5 0 580 590 1300 1310 720 721 1312 1310 1315 1310 3 0 53 -53 111
-117z m2714 -4718 c324 -1032 501 -1998 577 -3150 16 -255 16 -1151 0 -1410
-22 -336 -64 -790 -88 -946 -6 -37 -26 -47 -53 -25 -11 8 -13 8 -8 0 4 -7 0
-15 -9 -18 -8 -3 -12 -2 -9 3 3 5 1 12 -5 16 -5 3 -10 2 -10 -4 0 -10 -18 -10
-37 2 -6 4 -14 3 -17 -2 -7 -11 -25 -9 -45 3 -10 7 -12 6 -6 -4 6 -10 4 -12
-7 -7 -9 3 -21 0 -28 -6 -10 -9 -11 -9 -6 0 3 6 2 14 -4 18 -5 3 -10 2 -10 -4
0 -10 -18 -10 -37 2 -6 4 -14 3 -17 -2 -7 -11 -25 -9 -45 3 -9 6 -12 5 -8 -1
4 -6 -10 -9 -33 -9 -22 0 -40 5 -40 11 0 5 -5 3 -10 -5 -8 -13 -13 -13 -31 -2
-11 8 -18 9 -14 3 7 -13 -22 -10 -44 3 -9 6 -12 5 -8 -1 4 -6 0 -14 -9 -17 -8
-3 -12 -2 -9 3 3 5 1 12 -5 16 -5 3 -10 2 -10 -4 0 -10 -18 -10 -37 2 -6 4
-14 3 -17 -2 -7 -11 -25 -9 -45 3 -9 6 -12 5 -8 -1 4 -6 -10 -9 -33 -9 -22 0
-40 5 -40 11 0 5 -5 3 -10 -5 -8 -13 -13 -13 -31 -2 -11 8 -18 9 -14 3 7 -13
-22 -10 -44 3 -10 6 -12 5 -7 -2 10 -16 -7 -15 -23 1 -11 10 -12 9 -6 -2 6
-10 4 -13 -7 -8 -9 3 -21 0 -28 -6 -10 -9 -11 -9 -6 0 3 6 2 14 -4 18 -5 3
-10 1 -10 -5 0 -6 -4 -9 -9 -6 -5 4 -12 0 -14 -6 -3 -8 -6 -6 -6 5 -1 14 -5
16 -20 7 -14 -7 -22 -7 -26 0 -5 8 -11 8 -20 0 -10 -8 -15 -8 -20 0 -4 7 -11
7 -18 2 -18 -14 -49 -23 -42 -13 3 5 1 12 -5 16 -5 3 -10 2 -10 -4 0 -11 -19
-9 -39 3 -9 6 -12 5 -7 -2 4 -7 -1 -10 -14 -9 -11 1 -20 6 -20 11 0 5 -7 1
-16 -10 -8 -10 -13 -14 -10 -8 7 14 -32 26 -40 12 -4 -6 -10 -6 -17 1 -7 7
-15 7 -25 -1 -10 -9 -18 -9 -34 1 -16 10 -18 10 -12 0 5 -8 2 -11 -8 -6 -9 3
-21 0 -28 -6 -10 -9 -11 -9 -6 0 3 6 2 14 -4 18 -5 3 -10 1 -10 -5 0 -6 -4 -9
-9 -6 -5 4 -12 0 -14 -6 -3 -8 -6 -6 -6 5 -1 14 -5 16 -20 7 -14 -7 -22 -7
-26 0 -5 8 -11 8 -20 0 -10 -8 -15 -8 -20 0 -4 7 -11 7 -18 2 -18 -14 -49 -23
-42 -13 3 5 1 12 -5 16 -5 3 -10 2 -10 -4 0 -11 -19 -9 -39 3 -9 6 -12 5 -7
-2 4 -7 -1 -10 -14 -9 -11 1 -20 6 -20 11 0 5 -7 1 -16 -10 -8 -10 -13 -14
-10 -8 7 14 -32 26 -40 12 -4 -6 -10 -6 -17 1 -7 7 -15 7 -25 -1 -10 -9 -18
-9 -34 1 -16 10 -18 10 -12 0 5 -8 2 -11 -8 -6 -9 3 -21 0 -28 -6 -10 -9 -11
-9 -6 0 3 6 2 14 -4 18 -5 3 -10 1 -10 -5 0 -6 -4 -9 -9 -6 -5 4 -12 0 -14 -6
-3 -8 -6 -6 -6 5 -1 14 -5 16 -20 7 -14 -7 -22 -7 -26 0 -5 8 -11 8 -20 0 -10
-8 -15 -8 -20 0 -4 7 -11 7 -18 2 -18 -14 -49 -23 -42 -13 3 5 1 12 -5 16 -5
3 -10 2 -10 -4 0 -11 -19 -9 -39 3 -9 6 -12 5 -7 -2 4 -7 -1 -10 -14 -9 -11 1
-20 6 -20 11 0 5 -7 1 -16 -10 -8 -10 -13 -14 -10 -8 7 14 -32 26 -40 12 -4
-6 -10 -6 -17 1 -7 7 -15 7 -25 -1 -10 -9 -18 -9 -34 1 -16 10 -18 10 -12 0 5
-8 2 -11 -8 -6 -9 3 -21 0 -28 -6 -10 -9 -11 -9 -6 0 3 6 2 14 -4 18 -5 3 -10
1 -10 -5 0 -6 -4 -9 -9 -6 -5 4 -12 0 -14 -6 -3 -8 -6 -6 -6 5 -1 14 -5 16
-20 7 -14 -7 -22 -7 -26 0 -5 8 -11 8 -20 0 -10 -8 -15 -8 -20 0 -4 7 -11 7
-18 2 -18 -14 -49 -23 -42 -13 3 5 1 12 -5 16 -5 3 -10 2 -10 -4 0 -11 -19 -9
-39 3 -9 6 -12 5 -7 -2 4 -7 -1 -10 -14 -9 -11 1 -20 6 -20 11 0 5 -7 1 -16
-10 -8 -10 -13 -14 -10 -8 7 14 -32 26 -40 12 -4 -6 -10 -6 -17 1 -7 7 -15 7
-25 -1 -10 -9 -18 -9 -34 1 -16 10 -18 10 -12 0 5 -8 2 -11 -8 -6 -9 3 -21 0
-28 -6 -10 -9 -11 -9 -6 0 3 6 2 14 -4 18 -5 3 -10 1 -10 -5 0 -6 -4 -9 -9 -6
-5 4 -12 0 -14 -6 -3 -8 -6 -6 -6 5 -1 14 -5 16 -20 7 -14 -7 -22 -7 -26 0 -5
8 -11 8 -20 0 -10 -8 -15 -8 -20 0 -4 7 -11 7 -18 2 -18 -14 -49 -23 -42 -13
3 5 1 12 -5 16 -5 3 -10 2 -10 -4 0 -11 -19 -9 -39 3 -9 6 -12 5 -7 -2 4 -7
-1 -10 -14 -9 -11 1 -20 6 -20 11 0 5 -7 1 -16 -10 -8 -10 -13 -14 -10 -8 7
14 -32 26 -40 12 -4 -6 -10 -6 -17 1 -7 7 -15 7 -25 -1 -10 -9 -18 -9 -34 1
-16 10 -18 10 -12 0 5 -8 2 -11 -8 -6 -9 3 -21 0 -28 -6 -10 -9 -11 -9 -6 0 3
6 2 14 -4 18 -5 3 -10 1 -10 -5 0 -6 -4 -9 -9 -6 -5 4 -12 0 -14 -6 -3 -8 -6
-6 -6 5 -1 14 -5 16 -20 7 -14 -7 -22 -7 -26 0 -5 8 -11 8 -20 0 -10 -8 -15
-8 -20 0 -4 7 -11 7 -18 2 -18 -14 -49 -23 -42 -13 3 5 1 12 -5 16 -5 3 -10 2
-10 -4 0 -11 -19 -9 -39 3 -9 6 -12 5 -7 -2 4 -7 -1 -10 -14 -9 -11 1 -20 6
-20 11 0 5 -7 1 -16 -10 -8 -10 -13 -14 -10 -8 7 14 -32 26 -40 12 -4 -6 -10
-6 -17 1 -7 7 -15 7 -25 -1 -10 -9 -18 -9 -34 1 -16 10 -18 10 -12 0 5 -8 2
-11 -8 -6 -9 3 -21 0 -28 -6 -10 -9 -11 -9 -6 0 3 6 2 14 -4 18 -5 3 -10 1
-10 -5 0 -6 -4 -9 -9 -6 -5 4 -12 0 -14 -6 -3 -8 -6 -6 -6 5 -1 14 -5 16 -20
7 -14 -7 -22 -7 -26 0 -5 8 -11 8 -20 0 -10 -8 -15 -8 -20 0 -4 7 -11 7 -18 2
-18 -14 -49 -23 -42 -13 3 5 1 12 -5 16 -5 3 -10 2 -10 -4 0 -7 -28 -8 -37 -1
-7 6 -29 6 -38 1 -22 -12 -46 -11 -39 1 5 9 2 9 -9 -1 -14 -11 -20 -11 -34 0
-9 8 -14 9 -10 3 4 -8 -3 -11 -23 -10 -26 1 -30 5 -31 28 -1 41 -1 108 1 111
6 13 3 367 -3 367 -5 0 -5 5 -1 11 9 16 11 109 1 109 -5 0 -5 4 -2 10 3 5 5
144 5 307 -2 384 -3 415 -14 432 -6 10 -6 12 2 7 15 -9 16 19 1 46 -6 11 -7
18 -2 15 5 -4 9 11 9 33 -1 22 -5 40 -11 40 -7 0 -7 3 0 8 13 9 13 72 0 72 -5
0 -3 5 5 10 8 5 11 10 5 10 -6 0 -10 43 -10 108 0 59 -2 131 -6 160 -3 28 -1
52 4 52 4 0 5 5 2 10 -4 6 -11 7 -17 4 -7 -5 -8 -2 -2 7 13 21 14 39 2 39 -7
0 -7 5 1 13 6 8 8 17 4 21 -4 3 -7 32 -8 64 0 31 -4 63 -8 70 -5 7 -3 12 3 12
6 0 8 5 5 10 -4 6 -9 37 -11 68 -7 102 -12 141 -19 152 -3 5 -1 10 6 10 7 0 8
4 2 13 -5 6 -9 19 -8 27 1 8 -3 23 -7 33 -6 11 -5 17 4 17 9 0 9 3 0 12 -19
19 -15 68 6 69 9 1 28 4 42 6 14 3 37 5 53 6 15 1 27 4 27 7 0 5 46 11 100 14
14 0 28 4 31 9 3 4 26 8 51 10 25 1 44 5 41 10 -2 4 9 7 24 7 16 0 35 6 42 13
11 10 12 9 6 -3 -7 -12 -6 -13 6 -3 8 6 26 14 39 16 52 10 85 20 98 30 6 5 12
7 12 4 0 -3 15 -1 33 4 17 6 41 12 51 14 11 3 22 8 25 13 3 4 16 7 29 6 12 -1
22 2 22 7 0 6 31 16 67 22 5 0 19 6 32 13 14 7 28 11 33 8 4 -3 8 0 8 5 0 6 3
10 8 9 4 -1 20 4 35 10 16 7 35 12 43 12 8 0 14 5 14 10 0 6 8 10 18 10 10 0
22 3 26 8 4 4 11 7 14 7 4 1 18 7 30 14 13 7 26 10 29 7 3 -3 17 3 31 14 13
11 28 17 33 14 5 -3 12 1 15 10 3 8 12 12 20 9 8 -3 14 0 14 6 0 6 9 11 20 11
11 0 20 5 20 11 0 5 4 8 9 5 5 -3 14 1 21 9 7 8 21 15 31 15 11 0 19 5 19 11
0 5 4 8 9 5 5 -3 14 1 21 10 7 8 19 13 26 10 7 -3 15 2 18 10 3 9 10 12 16 9
5 -3 10 -1 10 5 0 6 5 8 10 5 6 -3 10 -2 10 4 0 5 16 15 35 22 19 7 35 17 35
21 0 4 5 8 12 8 6 0 25 10 42 23 17 13 46 29 64 36 18 8 30 16 27 19 -2 3 18
16 45 29 27 13 53 30 57 37 4 8 10 14 13 13 6 -1 92 54 100 64 3 3 14 11 26
17 19 10 67 47 132 102 12 10 22 16 22 14 0 -6 23 12 61 49 16 15 29 25 29 21
0 -4 8 3 19 14 10 12 21 19 25 15 3 -3 6 2 6 12 0 10 2 16 5 13 3 -3 34 21 68
54 34 33 64 59 67 59 9 -1 327 319 322 324 -3 3 0 5 6 5 6 0 14 9 17 20 4 11
11 18 16 15 5 -4 9 -1 9 5 0 6 14 25 30 42 17 16 30 34 30 39 0 5 7 9 16 9 8
0 13 4 10 9 -3 5 12 26 34 47 21 21 37 40 35 42 -2 2 8 16 23 31 33 34 62 69
62 77 0 2 9 14 20 26 10 12 16 26 13 32 -3 6 -3 8 2 4 4 -4 26 18 49 50 45 64
46 65 81 108 14 18 25 37 25 43 0 6 5 11 10 11 6 0 10 7 10 15 0 8 4 15 9 15
5 0 11 8 15 18 8 23 28 54 48 73 10 9 14 19 11 23 -4 4 -3 10 3 14 20 14 89
128 85 142 -1 8 0 12 5 8 9 -10 33 22 34 45 0 9 3 17 8 17 4 0 23 32 41 70 19
39 37 70 40 70 4 0 15 20 26 45 11 25 24 45 28 45 5 0 6 4 3 9 -3 4 3 16 13
25 10 9 21 30 24 45 3 16 13 36 22 45 9 9 13 16 10 16 -4 0 3 16 14 36 12 19
19 40 16 45 -4 5 -2 9 4 9 9 0 27 40 22 49 -2 2 1 7 6 10 9 5 28 44 78 159 10
23 22 39 26 35 4 -5 33 -89 64 -188z m-24345 139 c0 -9 10 -30 22 -47 12 -17
16 -27 7 -22 -8 5 -5 -1 5 -13 11 -12 15 -22 10 -22 -5 0 -4 -4 1 -8 15 -10
35 -49 35 -67 0 -8 4 -15 9 -15 7 0 14 -18 23 -57 1 -5 8 -14 15 -21 7 -8 11
-18 8 -23 -4 -5 -1 -9 4 -9 6 0 11 -9 11 -20 0 -11 5 -20 11 -20 5 0 7 -4 4
-10 -3 -5 -2 -10 4 -10 5 0 15 -15 21 -34 6 -19 14 -36 18 -38 4 -2 18 -25 32
-53 14 -27 27 -52 30 -55 3 -3 18 -30 34 -60 16 -30 34 -58 39 -61 5 -3 8 -8
6 -10 -5 -9 13 -49 22 -49 5 0 9 -7 9 -15 0 -8 5 -15 10 -15 6 0 10 -7 10 -15
0 -8 5 -15 10 -15 6 0 10 -5 10 -10 0 -12 72 -124 83 -128 4 -2 5 -8 1 -13 -3
-5 0 -9 6 -9 6 0 9 -4 6 -9 -3 -5 1 -11 9 -15 8 -3 15 -12 15 -21 0 -8 5 -15
11 -15 5 0 7 -4 4 -10 -3 -5 -2 -10 3 -10 5 0 15 -12 23 -27 8 -15 21 -35 29
-44 29 -31 50 -59 50 -67 0 -4 10 -19 23 -33 37 -43 72 -91 70 -95 -2 -2 7
-14 20 -27 12 -13 31 -36 42 -52 11 -16 37 -47 58 -69 20 -21 37 -42 37 -45 0
-3 22 -29 48 -57 26 -28 56 -63 67 -77 42 -53 144 -155 149 -149 3 3 6 0 6 -6
0 -15 37 -52 52 -52 6 0 9 -3 6 -6 -3 -3 28 -38 70 -77 42 -40 91 -86 109
-103 18 -18 33 -30 33 -27 0 3 16 -10 35 -29 20 -18 46 -43 59 -55 13 -12 27
-19 30 -16 3 4 6 -1 6 -11 0 -9 5 -14 10 -11 6 3 10 1 10 -5 0 -6 8 -14 18
-17 9 -4 22 -12 28 -17 6 -6 24 -20 39 -31 16 -11 42 -32 57 -47 15 -14 28
-24 28 -22 0 4 67 -42 80 -56 3 -3 17 -11 33 -19 15 -8 27 -18 27 -23 0 -4 7
-8 15 -8 8 0 25 -11 39 -25 14 -14 32 -25 41 -25 8 0 15 -5 15 -11 0 -5 14
-15 30 -20 17 -6 30 -15 30 -21 0 -5 4 -6 10 -3 5 3 10 2 10 -3 0 -4 16 -14
35 -22 19 -8 35 -17 35 -22 0 -4 7 -8 15 -8 8 0 15 -4 15 -10 0 -5 7 -10 16
-10 8 0 13 -4 9 -9 -3 -6 4 -8 15 -6 11 2 20 0 20 -4 0 -9 71 -46 83 -43 4 1
10 -5 13 -13 3 -8 10 -13 14 -10 5 3 16 -2 24 -11 9 -8 16 -13 16 -9 0 3 17
-3 38 -14 20 -10 52 -25 70 -33 17 -7 32 -17 32 -21 0 -5 5 -5 10 -2 6 3 13
-1 16 -10 5 -12 9 -13 14 -5 5 8 11 7 22 -4 9 -8 18 -12 22 -9 3 4 6 1 6 -5 0
-7 3 -11 8 -10 4 1 20 -4 35 -10 16 -7 35 -12 43 -12 8 0 14 -5 14 -11 0 -6 6
-9 13 -6 7 3 21 -1 32 -9 10 -8 27 -14 37 -14 10 0 18 -5 18 -12 0 -6 3 -9 6
-6 3 4 20 0 39 -7 18 -8 35 -11 39 -8 3 4 13 -2 21 -13 8 -10 15 -16 15 -12 0
4 26 -2 58 -13 31 -11 64 -22 72 -24 8 -2 15 -4 15 -5 0 -1 13 -3 29 -5 16 -2
32 -8 35 -12 3 -4 15 -8 26 -7 11 0 26 -4 33 -9 7 -6 15 -7 19 -4 3 3 19 -1
35 -9 17 -9 39 -13 49 -11 11 3 25 0 32 -7 6 -6 28 -12 49 -11 20 0 34 -3 31
-7 -2 -5 4 -8 14 -9 10 -1 27 -2 38 -3 11 -1 30 -3 43 -4 14 -1 20 -6 16 -13
-4 -8 0 -8 15 0 16 9 21 9 21 0 0 -8 4 -8 15 1 8 7 15 8 15 3 0 -5 6 -10 13
-11 57 -7 62 -10 59 -28 -2 -10 -3 -25 -3 -31 2 -29 -6 -197 -9 -200 -1 -2 -2
-22 -2 -45 -1 -24 -6 -46 -12 -50 -6 -5 -7 -8 -1 -8 6 0 9 -15 8 -32 -1 -18
-2 -33 -3 -33 -1 0 -3 -92 -4 -205 -1 -113 -6 -211 -10 -218 -4 -7 -2 -12 6
-13 10 0 10 -2 1 -6 -9 -3 -10 -10 -3 -22 5 -10 7 -21 4 -23 -2 -3 -5 -33 -5
-66 -1 -44 -5 -60 -13 -55 -8 5 -8 3 0 -8 13 -16 12 -47 -1 -68 -6 -11 -4 -13
10 -7 15 5 16 4 5 -9 -7 -8 -9 -15 -5 -15 4 0 2 -7 -5 -15 -9 -11 -9 -15 -1
-15 9 0 9 -5 0 -21 -8 -16 -8 -20 1 -14 9 6 9 3 1 -12 -7 -14 -7 -23 1 -31 9
-9 9 -12 0 -12 -10 0 -10 -5 -2 -20 6 -11 7 -20 2 -20 -4 0 -8 -9 -8 -20 0
-11 4 -20 8 -20 5 0 4 -9 -2 -19 -7 -14 -6 -21 3 -24 9 -3 9 -7 0 -18 -7 -9
-8 -20 -3 -29 5 -8 5 -21 0 -30 -5 -9 -5 -22 0 -30 5 -8 5 -21 1 -29 -9 -21
-8 -72 2 -88 5 -7 4 -13 -1 -13 -5 0 -7 -12 -5 -27 2 -16 4 -34 4 -40 -1 -7
-1 -20 -1 -28 0 -8 0 -22 0 -30 0 -8 0 -32 0 -52 0 -51 -1 -74 -4 -98 -1 -11
2 -26 7 -32 5 -7 6 -13 1 -13 -11 0 -11 -211 -1 -228 4 -6 4 -13 -1 -16 -4 -2
-6 -35 -5 -73 4 -86 4 -83 0 -113 -2 -14 0 -32 4 -41 4 -8 4 -21 -1 -29 -5 -9
-5 -19 2 -27 6 -7 6 -13 1 -13 -5 0 -9 -9 -9 -20 0 -11 4 -20 9 -20 5 0 4 -7
-3 -15 -7 -8 -8 -15 -3 -15 5 0 9 -9 9 -19 0 -11 -4 -17 -8 -15 -4 3 -8 1 -8
-5 0 -5 -9 -9 -20 -8 -11 1 -20 6 -20 12 0 6 -3 7 -8 0 -10 -14 -72 -15 -72
-2 0 6 -6 3 -13 -8 -10 -13 -16 -15 -21 -6 -4 6 -12 9 -17 6 -5 -4 -9 -1 -9 6
0 7 -7 4 -16 -7 -8 -10 -13 -14 -10 -8 7 14 -32 26 -40 12 -4 -6 -10 -6 -17 1
-7 7 -15 7 -25 -1 -10 -9 -18 -9 -34 1 -16 10 -18 10 -12 0 5 -8 2 -11 -8 -6
-9 3 -21 0 -28 -6 -10 -9 -11 -9 -6 0 3 6 2 14 -4 18 -5 3 -10 1 -10 -5 0 -6
-4 -9 -9 -6 -5 4 -12 0 -14 -6 -3 -8 -6 -6 -6 5 -1 14 -5 16 -20 7 -14 -7 -22
-7 -26 0 -5 8 -11 8 -20 0 -10 -8 -15 -8 -20 0 -4 7 -11 7 -18 2 -18 -14 -49
-23 -42 -13 3 5 1 12 -5 16 -5 3 -10 2 -10 -4 0 -11 -19 -9 -39 3 -9 6 -12 5
-7 -2 4 -7 -1 -10 -14 -9 -11 1 -20 6 -20 11 0 5 -7 1 -16 -10 -8 -10 -13 -14
-10 -8 7 14 -32 26 -40 12 -4 -6 -10 -6 -17 1 -7 7 -15 7 -25 -1 -10 -9 -18
-9 -34 1 -16 10 -18 10 -12 0 5 -8 2 -11 -8 -6 -9 3 -21 0 -28 -6 -10 -9 -11
-9 -6 0 3 6 2 14 -4 18 -5 3 -10 1 -10 -5 0 -6 -4 -9 -9 -6 -5 4 -12 0 -14 -6
-3 -8 -6 -6 -6 5 -1 14 -5 16 -20 7 -14 -7 -22 -7 -26 0 -5 8 -11 8 -20 0 -10
-8 -15 -8 -20 0 -4 7 -11 7 -18 2 -18 -14 -49 -23 -42 -13 3 5 1 12 -5 16 -5
3 -10 2 -10 -4 0 -11 -19 -9 -39 3 -9 6 -12 5 -7 -2 4 -7 -1 -10 -14 -9 -11 1
-20 6 -20 11 0 5 -7 1 -16 -10 -8 -10 -13 -14 -10 -8 7 14 -32 26 -40 12 -4
-6 -10 -6 -17 1 -7 7 -15 7 -25 -1 -10 -9 -18 -9 -34 1 -16 10 -18 10 -12 0 5
-8 2 -11 -8 -6 -9 3 -21 0 -28 -6 -10 -9 -11 -9 -6 0 3 6 2 14 -4 18 -5 3 -10
1 -10 -5 0 -6 -4 -9 -9 -6 -5 4 -12 0 -14 -6 -3 -8 -6 -6 -6 5 -1 14 -5 16
-20 7 -14 -7 -22 -7 -26 0 -5 8 -11 8 -20 0 -10 -8 -15 -8 -20 0 -4 7 -11 7
-18 2 -18 -14 -49 -23 -42 -13 3 5 1 12 -5 16 -5 3 -10 2 -10 -4 0 -11 -19 -9
-39 3 -9 6 -12 5 -7 -2 4 -7 -1 -10 -14 -9 -11 1 -20 6 -20 11 0 5 -7 1 -16
-10 -8 -10 -13 -14 -10 -8 7 14 -32 26 -40 12 -4 -6 -10 -6 -17 1 -7 7 -15 7
-25 -1 -10 -9 -18 -9 -34 1 -16 10 -18 10 -12 0 5 -8 2 -11 -8 -6 -9 3 -21 0
-28 -6 -10 -9 -11 -9 -6 0 3 6 2 14 -4 18 -5 3 -10 1 -10 -5 0 -6 -4 -9 -9 -6
-5 4 -12 0 -14 -6 -3 -8 -6 -6 -6 5 -1 14 -5 16 -20 7 -14 -7 -22 -7 -26 0 -5
8 -11 8 -20 0 -10 -8 -15 -8 -20 0 -4 7 -11 7 -18 2 -18 -14 -49 -23 -42 -13
3 5 1 12 -5 16 -5 3 -10 2 -10 -4 0 -11 -19 -9 -39 3 -9 6 -12 5 -7 -2 4 -7
-1 -10 -14 -9 -11 1 -20 6 -20 11 0 5 -7 1 -16 -10 -8 -10 -13 -14 -10 -8 7
14 -32 26 -40 12 -4 -6 -10 -6 -17 1 -7 7 -15 7 -25 -1 -10 -9 -18 -9 -34 1
-16 10 -18 10 -12 0 5 -8 2 -11 -8 -6 -9 3 -21 0 -28 -6 -10 -9 -11 -9 -6 0 3
6 2 14 -4 18 -5 3 -10 1 -10 -5 0 -6 -4 -9 -9 -6 -5 4 -12 0 -14 -6 -3 -8 -6
-6 -6 5 -1 14 -5 16 -20 7 -14 -7 -22 -7 -26 0 -5 8 -11 8 -20 0 -10 -8 -15
-8 -20 0 -4 7 -11 7 -18 2 -18 -14 -49 -23 -42 -13 3 5 1 12 -5 16 -5 3 -10 2
-10 -4 0 -11 -19 -9 -39 3 -9 6 -12 5 -7 -2 4 -7 -1 -10 -14 -9 -11 1 -20 6
-20 11 0 5 -7 1 -16 -10 -8 -10 -13 -14 -10 -8 7 14 -32 26 -40 12 -4 -6 -10
-6 -17 1 -7 7 -15 7 -25 -1 -10 -9 -18 -9 -34 1 -16 10 -18 10 -12 0 5 -8 2
-11 -8 -6 -9 3 -21 0 -28 -6 -10 -9 -11 -9 -6 0 3 6 2 14 -4 18 -5 3 -10 1
-10 -5 0 -6 -4 -9 -9 -6 -5 4 -12 0 -14 -6 -3 -8 -6 -6 -6 5 -1 14 -5 16 -20
7 -14 -7 -22 -7 -26 0 -5 8 -11 8 -20 0 -10 -8 -15 -8 -20 0 -4 7 -11 7 -18 2
-18 -14 -49 -23 -42 -13 3 5 1 12 -5 16 -5 3 -10 2 -10 -4 0 -11 -19 -9 -39 3
-9 6 -12 5 -7 -2 4 -7 -1 -10 -14 -9 -11 1 -20 6 -20 11 0 5 -7 1 -16 -10 -8
-10 -13 -14 -10 -8 7 14 -32 26 -40 12 -4 -6 -10 -6 -17 1 -7 7 -15 7 -25 -1
-10 -9 -18 -9 -34 1 -16 10 -18 10 -12 0 5 -8 2 -11 -8 -6 -9 3 -21 0 -28 -6
-10 -9 -11 -9 -6 0 3 6 2 14 -4 18 -5 3 -10 1 -10 -5 0 -6 -4 -9 -9 -6 -5 4
-12 0 -14 -6 -3 -8 -6 -6 -6 5 -1 14 -5 16 -20 7 -14 -7 -22 -7 -26 0 -5 8
-11 8 -20 0 -10 -8 -15 -8 -20 0 -4 7 -11 7 -18 2 -18 -14 -49 -23 -42 -13 3
5 1 12 -5 16 -5 3 -10 2 -10 -4 0 -11 -19 -9 -39 3 -9 6 -12 5 -7 -2 4 -7 -1
-10 -14 -9 -11 1 -20 6 -20 11 0 5 -7 1 -16 -10 -8 -10 -13 -14 -10 -8 7 14
-32 26 -40 12 -4 -6 -10 -6 -16 0 -7 7 -16 7 -28 -1 -14 -8 -23 -7 -36 4 -15
12 -17 12 -9 0 6 -11 4 -13 -7 -8 -9 3 -21 0 -28 -6 -10 -9 -11 -9 -6 0 3 6 2
14 -4 18 -5 3 -10 1 -10 -5 0 -6 -4 -9 -9 -6 -5 4 -12 0 -14 -6 -3 -8 -6 -6
-6 5 -1 14 -5 16 -20 7 -14 -7 -22 -7 -26 0 -5 8 -11 8 -20 0 -10 -8 -15 -8
-20 0 -4 7 -11 7 -18 2 -18 -14 -49 -23 -42 -13 3 5 1 12 -5 16 -5 3 -10 2
-10 -4 0 -11 -19 -9 -39 3 -9 6 -12 5 -7 -2 4 -7 -1 -10 -14 -9 -11 1 -20 6
-20 11 0 5 -7 1 -16 -10 -8 -10 -13 -14 -10 -8 7 14 -32 26 -40 13 -4 -6 -11
-6 -18 0 -7 6 -16 7 -20 3 -4 -4 -20 -7 -36 -8 -33 0 -30 -15 -59 251 -59 521
-76 848 -75 1440 0 494 7 674 40 1065 78 934 254 1833 536 2743 55 176 78 230
78 181z m12045 -5694 c-7 -11 8 -14 19 -3 10 10 136 10 136 0 0 -5 9 -5 20 -2
11 3 20 2 20 -3 0 -5 10 -8 23 -7 12 1 27 -2 33 -7 7 -5 22 -11 35 -13 12 -3
39 -16 61 -30 21 -14 38 -22 38 -19 0 4 11 -5 25 -20 13 -14 27 -26 31 -26 11
0 80 -76 100 -110 10 -16 22 -30 26 -30 4 0 8 -9 8 -20 0 -11 5 -20 11 -20 5
0 7 -4 4 -10 -3 -5 -1 -10 5 -10 7 0 10 -6 7 -14 -3 -7 0 -19 6 -25 6 -6 7
-11 3 -11 -5 0 -3 -6 3 -13 6 -8 13 -31 17 -53 3 -21 11 -42 18 -46 7 -5 7 -8
0 -8 -6 0 -10 -19 -10 -45 1 -25 5 -45 9 -45 4 0 3 -9 -3 -20 -7 -13 -7 -20
-1 -20 7 0 7 -9 1 -25 -6 -15 -6 -27 0 -30 6 -3 6 -15 0 -30 -6 -16 -6 -27 1
-31 7 -4 6 -10 -1 -19 -8 -10 -8 -19 0 -34 6 -12 7 -21 3 -21 -4 0 -8 -16 -8
-35 0 -19 2 -35 5 -35 5 0 3 -62 -3 -120 -2 -14 0 -36 3 -50 4 -14 3 -37 -1
-52 -4 -16 -4 -28 0 -28 5 0 5 -18 1 -40 -4 -23 -3 -43 2 -46 5 -3 4 -11 -2
-19 -8 -10 -8 -19 0 -34 6 -12 7 -21 3 -21 -4 0 -8 -18 -8 -40 0 -22 3 -40 7
-40 4 0 3 -12 -2 -26 -6 -15 -6 -23 -1 -19 6 3 6 -6 1 -25 -5 -17 -5 -32 0
-35 5 -3 5 -16 0 -30 -6 -16 -6 -27 1 -31 7 -4 6 -10 -1 -19 -8 -10 -8 -19 0
-34 6 -12 7 -21 3 -21 -4 0 -8 -16 -8 -35 0 -19 2 -35 5 -35 5 0 4 -38 -3
-128 -1 -24 1 -46 6 -49 4 -2 3 -11 -3 -18 -8 -10 -8 -19 0 -34 6 -12 7 -21 3
-21 -4 0 -8 -18 -8 -40 0 -22 3 -40 7 -40 4 0 3 -12 -2 -26 -6 -15 -6 -23 -1
-19 6 3 6 -6 1 -25 -5 -17 -5 -32 0 -35 5 -3 5 -16 0 -30 -6 -16 -6 -27 1 -31
7 -4 6 -10 -1 -19 -8 -10 -8 -19 0 -34 6 -12 7 -21 3 -21 -4 0 -8 -16 -8 -35
0 -19 2 -35 5 -35 6 0 4 -73 -3 -110 -2 -14 -1 -34 3 -45 4 -11 4 -30 -1 -42
-5 -14 -5 -23 1 -23 6 0 6 -9 0 -25 -6 -15 -6 -27 0 -30 6 -3 6 -15 0 -30 -6
-16 -6 -27 1 -31 7 -4 6 -10 -1 -19 -8 -10 -8 -19 0 -34 6 -12 7 -21 3 -21 -4
0 -8 -16 -8 -35 0 -19 2 -35 5 -35 5 0 3 -62 -3 -120 -2 -14 0 -36 3 -50 4
-14 3 -37 -1 -52 -4 -16 -4 -28 1 -28 6 0 6 -9 1 -23 -5 -14 -5 -30 0 -40 7
-11 6 -17 0 -17 -7 0 -7 -8 -2 -22 5 -13 5 -33 0 -45 -5 -13 -4 -25 1 -28 5
-3 6 -15 1 -28 -5 -12 -5 -32 0 -44 5 -13 5 -23 1 -23 -4 0 -7 -11 -7 -25 0
-14 3 -25 7 -25 4 0 4 -10 -1 -22 -5 -13 -5 -32 -1 -43 4 -11 4 -30 -1 -42 -5
-14 -5 -23 1 -23 6 0 6 -9 0 -25 -6 -15 -6 -27 0 -30 6 -3 6 -15 0 -30 -6 -16
-6 -27 1 -31 7 -4 6 -10 -1 -19 -8 -10 -8 -19 0 -34 6 -12 7 -21 3 -21 -4 0
-8 -16 -8 -35 0 -19 2 -35 5 -35 5 0 3 -62 -3 -120 -2 -14 0 -36 3 -50 4 -14
3 -37 -1 -52 -4 -16 -4 -28 1 -28 6 0 6 -9 1 -23 -5 -14 -5 -30 0 -40 7 -11 6
-17 0 -17 -7 0 -7 -8 -2 -22 5 -13 5 -33 0 -45 -5 -13 -4 -25 1 -28 5 -3 6
-15 1 -28 -5 -12 -5 -32 0 -44 5 -13 5 -23 1 -23 -4 0 -7 -11 -7 -25 0 -14 3
-25 7 -25 4 0 4 -10 -1 -22 -5 -13 -5 -32 -1 -43 4 -11 4 -30 -1 -42 -5 -14
-5 -23 1 -23 6 0 6 -9 0 -25 -6 -15 -6 -27 0 -30 6 -3 6 -15 0 -30 -6 -16 -6
-27 1 -31 7 -4 6 -10 -1 -19 -8 -10 -8 -19 0 -34 6 -12 7 -21 3 -21 -4 0 -8
-16 -8 -35 0 -19 2 -35 5 -35 5 0 3 -62 -3 -120 -2 -14 0 -36 3 -50 4 -14 3
-37 -1 -52 -4 -16 -4 -28 0 -28 5 0 5 -18 1 -40 -4 -23 -3 -43 2 -46 5 -3 4
-11 -2 -19 -8 -10 -8 -19 0 -34 6 -12 7 -21 3 -21 -4 0 -8 -18 -8 -40 0 -22 3
-40 7 -40 4 0 3 -12 -2 -26 -6 -15 -6 -23 -1 -19 6 3 6 -6 1 -25 -5 -17 -5
-32 0 -35 5 -3 5 -16 0 -30 -6 -16 -6 -27 1 -31 7 -4 6 -10 -1 -19 -8 -10 -8
-19 0 -34 6 -12 7 -21 3 -21 -4 0 -8 -16 -8 -35 0 -19 2 -35 5 -35 5 0 4 -38
-3 -128 -1 -24 1 -46 6 -49 4 -2 3 -11 -3 -18 -8 -10 -8 -19 0 -34 6 -12 7
-21 3 -21 -4 0 -8 -18 -8 -40 0 -22 3 -40 7 -40 4 0 3 -12 -2 -26 -6 -15 -6
-23 -1 -19 6 3 6 -6 1 -25 -5 -17 -5 -32 0 -35 5 -3 5 -16 0 -30 -6 -16 -6
-27 1 -31 7 -4 6 -10 -1 -19 -8 -10 -8 -19 0 -34 6 -12 7 -21 3 -21 -4 0 -8
-16 -8 -35 0 -19 2 -35 5 -35 6 0 4 -73 -3 -110 -2 -14 -1 -34 3 -45 4 -11 4
-30 -1 -42 -5 -14 -5 -23 1 -23 6 0 6 -9 0 -25 -6 -15 -6 -27 0 -30 6 -3 6
-15 0 -30 -6 -16 -6 -27 1 -31 7 -4 6 -10 -1 -19 -8 -10 -8 -19 0 -34 6 -12 7
-21 3 -21 -4 0 -8 -16 -8 -35 0 -19 2 -35 5 -35 5 0 3 -62 -3 -120 -2 -14 0
-36 3 -50 4 -14 3 -37 -1 -52 -4 -16 -4 -28 1 -28 6 0 6 -9 1 -23 -5 -14 -5
-30 0 -40 7 -11 6 -17 0 -17 -7 0 -7 -8 -2 -23 5 -12 5 -32 0 -44 -5 -13 -4
-25 1 -28 5 -3 6 -15 1 -28 -5 -12 -5 -32 0 -44 5 -13 5 -23 1 -23 -4 0 -7
-11 -7 -25 0 -14 3 -25 7 -25 4 0 4 -10 -1 -22 -5 -13 -5 -32 -1 -43 4 -11 4
-30 -1 -42 -5 -14 -5 -23 1 -23 6 0 6 -9 0 -25 -6 -15 -6 -27 0 -30 6 -3 6
-15 0 -30 -6 -16 -6 -27 1 -31 7 -4 6 -10 -1 -19 -8 -10 -8 -19 0 -34 6 -12 7
-21 3 -21 -4 0 -8 -16 -8 -35 0 -19 2 -35 5 -35 5 0 3 -62 -3 -120 -2 -14 0
-36 3 -50 4 -14 3 -37 -1 -52 -4 -16 -4 -28 1 -28 6 0 6 -9 1 -23 -5 -14 -5
-30 0 -40 7 -11 6 -17 0 -17 -7 0 -7 -8 -2 -22 5 -13 5 -33 0 -45 -5 -13 -4
-25 1 -28 5 -3 6 -15 1 -28 -5 -12 -5 -32 0 -44 5 -13 5 -23 1 -23 -4 0 -7
-11 -7 -25 0 -14 3 -25 7 -25 4 0 4 -10 -1 -23 -5 -12 -5 -31 -1 -42 4 -11 4
-30 -1 -42 -5 -14 -5 -23 1 -23 6 0 6 -9 0 -25 -6 -15 -6 -27 0 -30 6 -3 6
-15 0 -30 -6 -16 -6 -27 1 -31 7 -4 6 -10 -1 -19 -8 -10 -8 -19 0 -34 6 -12 7
-21 3 -21 -4 0 -8 -16 -8 -35 0 -19 2 -35 5 -35 5 0 3 -62 -3 -120 -2 -14 0
-36 3 -50 4 -14 3 -37 -1 -52 -4 -16 -4 -28 0 -28 5 0 5 -18 1 -40 -4 -23 -3
-43 2 -46 5 -3 4 -11 -2 -19 -8 -10 -8 -19 0 -34 6 -12 7 -21 3 -21 -4 0 -8
-18 -8 -40 0 -22 3 -40 7 -40 4 0 3 -12 -2 -26 -6 -15 -6 -23 -1 -19 6 3 6 -6
1 -25 -5 -17 -5 -32 0 -35 5 -3 5 -16 0 -30 -6 -16 -6 -27 1 -31 7 -4 6 -10
-1 -19 -8 -10 -8 -19 0 -34 6 -12 7 -21 3 -21 -4 0 -8 -16 -8 -35 0 -19 2 -35
5 -35 5 0 4 -38 -3 -128 -1 -24 1 -46 6 -49 4 -2 3 -11 -3 -18 -8 -10 -8 -19
0 -34 6 -12 7 -21 3 -21 -4 0 -8 -18 -8 -40 0 -22 3 -40 7 -40 4 0 3 -12 -2
-26 -6 -15 -6 -23 -1 -19 6 3 6 -6 1 -25 -5 -17 -5 -32 0 -35 5 -3 5 -16 0
-30 -6 -16 -6 -27 1 -31 7 -4 6 -10 -1 -19 -8 -10 -8 -19 0 -34 6 -12 7 -21 3
-21 -7 0 -9 -64 -3 -80 2 -3 2 -9 1 -14 -1 -6 0 -21 4 -34 4 -18 9 -21 19 -13
7 6 16 8 19 4 4 -3 7 -2 7 4 0 6 14 10 30 9 17 -1 30 1 30 4 0 6 23 10 75 13
17 1 36 9 43 17 8 8 11 9 7 3 -3 -7 -1 -13 4 -13 6 0 11 4 11 8 0 5 14 7 30 6
17 -1 30 1 30 5 0 4 18 8 41 9 22 1 46 5 52 9 6 4 27 8 47 10 19 2 42 6 50 10
8 4 26 8 39 9 13 2 31 6 40 10 9 4 29 9 46 11 16 3 34 8 40 13 5 4 18 6 28 5
9 -2 17 0 17 4 0 4 6 8 13 8 42 3 67 8 67 14 0 4 8 6 18 4 9 -1 22 1 27 6 6 4
28 9 50 11 22 2 43 7 46 11 3 4 18 10 34 13 15 3 36 9 45 14 10 5 20 6 24 3 3
-3 6 -1 6 5 0 6 7 9 15 6 9 -4 15 0 15 7 0 11 3 11 10 -1 5 -8 10 -10 10 -4 0
6 6 11 13 12 36 3 53 8 59 16 3 5 19 10 34 12 16 2 30 7 32 12 1 5 14 7 29 4
20 -4 24 -2 18 8 -6 10 -4 12 7 7 9 -3 26 0 40 7 13 7 34 12 45 11 12 -1 24 4
27 11 3 7 14 11 25 9 12 -2 24 2 28 8 5 7 15 13 23 13 8 0 29 7 45 14 17 7 39
15 50 17 11 2 24 8 29 13 6 6 18 10 28 10 10 0 18 4 18 9 0 5 9 7 20 4 12 -3
20 0 20 6 0 7 4 10 9 6 5 -3 13 0 16 6 4 5 13 8 21 5 8 -3 14 -1 14 5 0 6 5 7
10 4 6 -3 10 -1 10 5 0 6 5 8 10 5 6 -3 10 -2 10 3 0 6 6 10 13 9 35 -1 48 4
41 16 -4 6 -4 9 1 5 4 -4 15 -2 23 5 11 8 13 8 9 0 -5 -8 -1 -8 17 0 13 7 22
16 19 21 -4 5 -2 6 4 3 5 -3 32 5 60 18 28 13 54 21 57 17 3 -3 6 0 6 6 0 7 3
11 8 10 4 -1 17 3 28 10 12 6 24 8 28 5 3 -3 6 -1 6 6 0 7 5 9 10 6 6 -3 10
-1 10 4 0 6 3 10 8 10 13 -3 72 23 72 31 0 4 9 6 20 3 12 -3 20 0 20 7 0 7 7
10 15 6 8 -3 15 -1 15 4 0 5 10 12 23 16 12 3 35 16 51 27 18 13 26 15 21 6
-5 -9 -1 -8 12 3 11 10 25 18 31 18 7 0 12 4 12 10 0 5 7 7 15 4 8 -4 15 -2
15 3 0 9 87 53 104 53 4 0 19 9 33 20 14 11 29 17 34 14 5 -3 12 1 15 10 3 8
14 13 25 11 12 -2 19 2 19 11 0 8 5 12 10 9 6 -3 10 -1 10 5 0 6 4 9 9 5 5 -3
16 1 24 9 8 8 33 23 56 33 22 10 41 21 41 25 0 5 6 8 14 8 7 0 19 7 26 15 7 8
16 12 21 9 5 -3 9 0 9 5 0 6 6 11 14 11 8 0 21 6 28 13 7 7 28 19 46 26 17 7
32 18 32 24 0 6 3 7 6 4 4 -4 19 2 34 13 16 11 33 20 39 20 6 0 11 5 11 10 0
6 8 13 18 17 9 3 31 16 48 29 17 13 34 20 38 17 3 -4 6 0 6 7 0 7 3 11 6 7 3
-3 15 3 27 13 11 11 23 17 27 15 5 -3 10 2 14 10 3 8 12 15 21 15 8 0 15 5 15
10 0 6 7 10 15 10 8 0 15 4 15 9 0 5 11 12 25 15 14 4 25 11 25 16 0 6 5 10
10 10 10 0 22 8 55 38 7 6 17 12 22 12 4 0 21 11 36 25 15 14 27 23 27 20 0
-6 13 4 45 33 8 7 15 10 15 5 0 -4 5 0 11 10 5 9 17 17 26 17 9 0 13 3 10 6
-4 4 10 15 29 26 20 11 45 28 57 39 11 10 26 19 31 19 6 0 17 9 24 20 7 12 16
19 20 16 10 -6 32 20 24 29 -4 4 -2 5 3 3 10 -3 68 37 115 79 14 13 31 23 38
23 7 0 10 4 7 10 -3 5 -2 10 4 10 6 0 26 14 46 31 19 17 35 29 35 25 0 -3 20
14 45 38 24 24 46 42 48 39 3 -2 18 12 36 32 17 20 31 33 31 29 0 -4 11 5 25
20 13 14 26 26 29 26 3 0 18 12 34 27 35 34 81 73 86 74 3 0 65 60 140 133 74
73 132 128 129 123 -3 -6 19 15 51 45 31 31 56 60 56 67 0 6 3 10 8 9 8 -3 52
39 46 44 -2 3 7 10 19 17 13 7 31 26 41 42 10 16 22 27 27 24 5 -4 9 -2 9 4 0
5 24 34 54 65 30 30 52 57 48 60 -3 3 2 6 11 6 10 0 17 4 17 8 0 4 20 29 45
55 24 26 41 47 38 47 -3 0 14 18 37 40 23 22 39 40 36 40 -4 0 15 23 42 50 27
27 48 50 46 50 -2 0 7 12 20 28 47 52 62 71 82 98 10 15 29 38 40 50 12 13 19
25 16 28 -3 3 2 6 12 6 9 0 15 4 12 9 -3 4 10 25 30 45 19 20 32 36 28 36 -4
0 6 12 21 28 15 15 38 43 50 62 12 19 30 41 39 49 9 7 16 19 16 26 0 7 7 16
16 19 8 3 13 10 10 15 -3 5 1 12 10 15 9 4 14 9 11 12 -3 3 2 14 11 23 26 27
52 61 52 66 0 5 27 39 53 67 9 10 15 18 11 18 -6 0 48 74 59 78 4 2 5 7 2 12
-2 4 4 15 15 25 11 10 20 24 20 32 0 7 7 16 15 19 8 4 13 10 10 14 -3 4 2 13
10 20 8 7 15 19 15 27 0 8 5 11 10 8 6 -3 10 0 10 8 0 8 9 24 20 37 11 13 20
27 20 32 0 5 4 6 10 3 5 -3 8 0 5 7 -3 7 6 25 20 41 14 15 24 27 21 27 -3 0 6
16 19 36 14 20 25 41 25 46 0 5 4 7 8 4 4 -2 8 4 9 14 1 11 11 29 22 42 12 12
21 27 21 34 0 6 7 17 15 24 8 7 12 16 9 21 -3 5 2 9 10 9 10 0 13 6 10 15 -4
10 0 15 12 16 11 0 14 3 6 6 -9 3 -5 13 13 35 14 16 25 36 25 44 0 9 5 12 10
9 6 -3 10 3 10 14 0 12 5 21 11 21 5 0 7 5 4 10 -3 6 1 13 9 16 9 3 13 11 10
16 -4 6 -2 13 3 17 5 3 29 42 53 86 67 123 81 149 91 161 5 6 7 13 4 16 -3 3
1 11 10 18 8 7 15 18 15 25 0 19 23 24 63 15 20 -4 38 -5 41 -2 4 3 6 0 6 -5
0 -6 12 -10 26 -8 14 1 31 -3 37 -9 7 -6 23 -12 37 -13 42 -2 70 -7 70 -13 0
-3 10 -6 23 -6 30 -3 55 -9 63 -16 3 -4 12 -4 20 -1 8 3 14 1 14 -4 0 -5 10
-9 22 -8 13 1 29 -4 36 -12 8 -7 18 -11 23 -7 5 3 26 0 47 -7 20 -6 42 -13 47
-14 6 -1 15 -3 20 -5 6 -1 18 -6 28 -11 12 -7 17 -6 17 3 1 10 4 9 13 -2 7 -8
23 -17 37 -19 14 -1 27 -6 30 -10 3 -4 12 -6 20 -6 8 1 20 -2 25 -6 9 -6 54
-18 72 -20 5 0 14 -5 21 -11 6 -6 12 -7 12 -3 0 4 6 3 13 -3 10 -8 66 -24 82
-23 2 0 17 -6 32 -14 14 -8 30 -12 35 -9 4 3 8 1 8 -4 0 -4 23 -15 50 -22 28
-7 50 -17 50 -22 0 -4 3 -7 8 -7 17 3 72 -14 72 -23 0 -5 6 -8 13 -7 17 2 57
-12 57 -20 0 -4 8 -7 18 -8 40 -3 57 -9 65 -20 4 -7 14 -10 22 -7 8 4 15 2 15
-3 0 -5 20 -15 44 -22 25 -7 46 -17 48 -22 2 -6 13 -11 26 -12 12 0 22 -5 22
-10 0 -5 6 -7 14 -4 8 3 17 -1 20 -9 3 -9 10 -13 15 -9 5 3 12 1 16 -5 3 -5
15 -10 26 -10 10 0 19 -5 19 -11 0 -5 5 -7 10 -4 6 3 10 1 10 -5 0 -6 5 -8 10
-5 6 3 10 1 10 -5 0 -7 7 -10 15 -6 8 3 15 2 15 -2 0 -4 15 -13 33 -21 17 -7
55 -24 82 -37 28 -12 55 -24 60 -25 6 -1 16 -9 23 -18 9 -10 11 -11 6 -2 -5 9
5 6 23 -7 17 -12 35 -22 40 -22 5 0 15 -6 21 -12 7 -7 16 -14 20 -14 28 -6 52
-18 52 -27 0 -6 3 -8 6 -4 3 3 24 -5 45 -19 21 -13 43 -24 49 -24 5 0 10 -3
10 -7 0 -5 18 -17 40 -27 22 -11 40 -23 40 -28 0 -5 4 -7 9 -4 5 3 26 -7 47
-22 41 -30 74 -46 87 -44 4 1 6 -3 5 -10 -2 -7 2 -13 7 -13 18 -2 65 -28 65
-35 0 -4 14 -13 30 -20 17 -7 30 -17 30 -22 0 -5 5 -6 10 -3 6 3 10 1 10 -6 0
-7 3 -10 6 -6 3 3 18 -5 33 -19 14 -13 34 -27 44 -30 9 -3 17 -10 17 -15 0 -6
4 -8 9 -5 5 3 11 -1 15 -9 3 -8 12 -15 21 -15 8 0 15 -4 15 -8 0 -5 12 -15 28
-23 58 -30 59 -27 -77 -191 -443 -530 -957 -1050 -1490 -1507 -2025 -1736
-4517 -2791 -7156 -3030 -455 -41 -570 -46 -1165 -46 -595 0 -710 5 -1165 46
-2240 203 -4380 994 -6225 2303 -392 278 -786 593 -1162 929 l-147 132 946
947 947 947 32 -52 c18 -29 38 -57 43 -63 5 -7 7 -15 4 -18 -4 -3 0 -6 7 -6 7
0 11 -3 7 -6 -3 -3 -1 -11 4 -18 40 -47 49 -60 49 -68 0 -5 6 -15 13 -23 24
-25 51 -60 49 -63 -5 -5 29 -62 38 -62 5 0 12 -10 16 -22 3 -12 15 -31 25 -42
11 -11 19 -26 19 -33 0 -7 5 -13 10 -13 6 0 16 -12 23 -27 6 -15 19 -35 27
-44 31 -33 60 -69 55 -69 -3 0 3 -10 14 -22 11 -11 18 -25 16 -29 -3 -4 4 -10
15 -14 11 -4 18 -10 15 -15 -3 -5 2 -13 11 -18 9 -5 16 -13 16 -18 1 -17 25
-44 33 -36 5 4 5 2 1 -5 -3 -6 5 -23 18 -36 14 -14 22 -28 19 -31 -4 -3 -1 -6
5 -6 6 0 14 -9 17 -20 4 -11 11 -18 16 -15 5 4 9 0 9 -7 0 -11 13 -29 85 -110
8 -10 15 -22 15 -28 0 -5 4 -10 8 -10 5 0 24 -21 43 -47 18 -27 45 -60 59 -76
44 -48 49 -55 43 -61 -4 -3 1 -6 10 -6 10 0 17 -4 17 -9 0 -5 18 -28 40 -51
21 -22 39 -43 40 -45 0 -3 3 -5 7 -4 4 0 10 -6 13 -14 6 -18 91 -114 188 -214
39 -41 72 -80 72 -86 0 -5 3 -7 6 -4 4 4 19 -9 34 -28 15 -19 30 -32 34 -28 3
3 6 0 6 -8 0 -8 27 -39 60 -69 33 -30 60 -61 60 -68 0 -6 3 -11 8 -10 4 2 18
-7 32 -20 13 -12 27 -22 32 -22 4 0 8 -4 8 -10 0 -5 11 -20 25 -34 14 -14 25
-23 25 -21 0 2 33 -29 74 -68 41 -40 85 -81 99 -92 13 -11 23 -23 20 -27 -2
-5 1 -8 8 -8 7 0 19 -7 28 -14 9 -8 37 -35 64 -59 26 -24 47 -41 47 -38 0 3
11 -5 24 -19 13 -14 43 -41 66 -60 23 -19 53 -45 66 -58 13 -13 24 -19 24 -15
0 4 5 0 11 -9 5 -10 15 -18 20 -18 6 0 24 -14 40 -31 16 -17 29 -28 29 -24 0
5 8 -2 19 -13 10 -12 22 -22 26 -22 4 0 31 -20 60 -45 29 -24 55 -41 59 -38 3
3 6 -1 6 -11 0 -9 4 -15 8 -12 5 3 15 -4 22 -15 8 -10 19 -19 26 -19 6 0 19
-9 29 -20 10 -11 22 -17 26 -14 5 3 9 1 9 -4 0 -4 27 -26 60 -48 33 -21 60
-42 60 -46 0 -5 7 -8 15 -8 8 0 15 -4 15 -10 0 -5 7 -10 15 -10 8 0 15 -4 15
-10 0 -5 6 -10 14 -10 8 0 21 -9 29 -20 8 -11 16 -18 19 -15 3 3 11 -1 18 -10
7 -8 19 -15 28 -15 8 0 12 -3 9 -6 -6 -7 39 -36 76 -50 9 -3 17 -10 17 -15 0
-5 7 -9 15 -9 8 0 15 -5 15 -11 0 -5 5 -7 10 -4 6 3 10 2 10 -2 0 -5 20 -19
45 -33 25 -14 45 -28 45 -33 0 -4 5 -5 10 -2 6 3 10 1 10 -4 0 -6 5 -11 10
-11 12 0 71 -39 81 -54 4 -5 12 -5 18 -2 6 4 11 0 11 -8 0 -9 3 -15 8 -14 11
4 72 -26 72 -34 0 -5 5 -8 11 -8 6 0 25 -10 42 -22 18 -13 28 -16 23 -7 -5 9
-3 9 6 -2 7 -9 30 -24 50 -33 21 -10 35 -23 31 -29 -3 -5 -1 -7 5 -3 11 6 92
-34 125 -62 9 -8 17 -11 17 -7 0 5 5 4 12 -3 7 -7 20 -12 31 -12 10 0 16 -4
13 -9 -3 -4 13 -14 34 -21 22 -7 40 -17 40 -23 0 -5 6 -7 14 -4 8 3 16 2 18
-2 3 -9 106 -58 122 -59 5 0 13 -7 18 -16 5 -8 15 -13 23 -10 8 4 15 2 15 -4
0 -9 37 -25 53 -23 4 1 7 -4 7 -10 0 -6 7 -9 15 -5 8 3 15 2 15 -2 0 -8 66
-37 98 -43 4 -1 19 -10 34 -20 15 -11 30 -18 35 -17 4 1 18 -3 29 -10 12 -6
24 -8 28 -5 3 3 6 2 6 -3 0 -6 17 -16 38 -23 20 -8 55 -22 77 -31 35 -16 68
-29 85 -35 3 -1 13 -5 22 -9 9 -4 24 -9 33 -10 9 -1 20 -7 23 -12 6 -8 14 -10
64 -16 10 -1 20 -8 22 -15 3 -7 12 -10 21 -7 8 3 15 1 15 -5 0 -6 9 -11 19
-11 11 0 40 -9 65 -20 25 -10 46 -17 46 -14 0 2 10 -1 23 -8 12 -7 28 -11 35
-10 6 2 12 -5 12 -15 0 -14 2 -15 9 -4 6 9 11 10 15 3 4 -6 13 -9 20 -6 7 3
20 -1 27 -8 8 -7 21 -13 29 -13 8 1 21 -3 28 -8 6 -5 12 -6 12 -2 0 4 7 2 15
-5 8 -7 15 -10 15 -6 0 4 14 0 30 -9 23 -12 30 -12 30 -3 0 10 2 10 9 0 4 -7
18 -14 29 -15 12 -1 22 -5 22 -10 0 -4 4 -6 9 -2 5 3 12 1 15 -4 4 -5 14 -8
24 -7 9 2 20 -1 23 -5 3 -5 17 -10 32 -11 15 -1 27 -5 27 -8 0 -3 12 -7 27 -8
15 -1 29 -5 32 -10 3 -4 22 -8 41 -10 19 -1 37 -6 40 -10 3 -4 14 -8 25 -9 22
-2 43 -7 90 -21 17 -5 38 -8 48 -6 9 1 17 -1 17 -5 0 -4 6 -8 13 -9 6 -1 23
-3 37 -4 14 -2 28 -6 31 -11 3 -4 24 -8 46 -10 23 -1 39 -5 37 -8 -4 -7 28
-13 126 -24 24 -3 48 -11 52 -18 6 -9 8 -8 8 3 0 9 3 11 8 5 4 -5 18 -12 32
-14 42 -6 45 -6 55 -12 6 -3 20 -4 33 -3 12 0 22 -2 22 -6 0 -5 9 -6 20 -3 12
3 20 0 20 -7 0 -10 3 -10 15 0 8 7 15 8 15 3 0 -5 10 -10 23 -10 12 -1 32 -5
44 -8 l22 -5 1 4777 c1 2628 1 4786 1 4796 0 10 5 15 11 11 7 -5 8 -2 3 7 -14
21 -13 48 2 60 7 6 10 15 7 20 -3 5 -2 15 3 22 4 6 8 14 9 17 5 30 18 60 24
60 4 0 11 11 14 25 3 13 17 37 31 52 42 48 45 52 45 64 0 7 3 10 6 6 4 -3 19
6 34 21 42 41 70 63 70 54 0 -4 7 1 14 11 8 10 17 18 20 17 4 0 21 6 39 14 48
21 70 29 87 32 39 7 50 11 56 17 11 10 16 8 9 -3z m-12250 -1134 c42 1 76 -2
84 -9 12 -9 13 -9 8 0 -9 15 44 13 55 -2 5 -6 8 -6 8 1 0 13 148 13 169 0 10
-6 12 -6 7 2 -9 14 46 11 56 -3 5 -6 8 -6 8 1 0 13 148 13 169 0 10 -6 12 -6
7 2 -9 14 46 11 56 -3 5 -6 8 -6 8 1 0 13 148 13 169 0 10 -6 12 -6 7 2 -9 14
46 11 56 -3 5 -6 8 -6 8 1 0 7 29 10 83 9 45 -1 82 -3 82 -4 0 -1 8 -4 18 -6
9 -2 15 0 12 5 -7 12 78 8 94 -4 11 -8 13 -8 8 0 -8 13 71 13 92 0 9 -6 12 -5
8 1 -8 13 52 12 72 -1 9 -6 12 -5 8 1 -4 7 7 10 31 9 20 -2 43 2 50 7 9 7 11
5 5 -9 -6 -17 -5 -17 10 -5 14 11 20 11 34 0 9 -8 14 -9 10 -3 -8 13 71 13 92
0 9 -6 12 -5 8 1 -8 13 52 12 72 -1 9 -6 12 -5 8 1 -4 7 7 10 31 9 20 -2 43 2
50 7 9 7 11 5 5 -9 -6 -17 -5 -17 10 -5 14 11 20 11 34 0 9 -8 14 -9 10 -3 -8
13 71 13 92 0 9 -6 12 -5 8 1 -8 13 52 12 72 -1 9 -6 12 -5 8 1 -4 7 7 10 31
9 20 -2 43 2 50 7 9 7 11 5 5 -9 -6 -17 -5 -17 10 -5 14 11 20 11 34 0 9 -8
14 -9 10 -3 -8 13 71 13 92 0 9 -6 12 -5 8 1 -8 13 52 12 72 -1 9 -6 12 -5 8
1 -4 7 7 10 31 9 20 -2 43 2 50 7 9 7 11 5 6 -8 -6 -14 -4 -16 7 -9 24 15 60
16 77 2 11 -9 14 -9 9 -1 -9 15 44 13 55 -2 5 -6 8 -6 8 1 0 13 148 13 169 0
10 -6 12 -6 7 2 -9 14 46 11 56 -3 5 -6 8 -6 8 1 0 13 148 13 169 0 10 -6 12
-6 7 2 -9 14 46 11 56 -3 5 -6 8 -6 8 1 0 13 148 13 169 0 10 -6 12 -6 7 2 -9
14 46 11 56 -3 5 -6 8 -6 8 1 0 13 148 13 169 0 10 -6 12 -6 7 2 -9 14 46 11
56 -3 5 -6 8 -6 8 1 0 7 29 10 83 9 45 -1 82 -3 82 -4 0 -1 8 -4 18 -6 9 -2
15 0 12 4 -2 4 18 8 45 8 35 1 48 -2 43 -11 -4 -6 1 -5 10 3 14 11 20 11 34 0
9 -8 14 -9 10 -2 -5 8 6 11 40 10 47 -2 48 -3 51 -37 2 -19 9 -38 15 -42 9 -6
8 -8 -1 -8 -7 0 -10 -5 -6 -11 6 -11 16 -77 18 -131 0 -16 3 -28 6 -28 5 0 8
-33 13 -117 1 -22 6 -39 11 -35 5 3 7 -2 3 -10 -3 -9 0 -21 6 -28 9 -10 9 -11
-2 -5 -10 6 -12 4 -5 -6 5 -8 9 -22 10 -31 1 -10 2 -19 4 -20 4 -6 10 -44 12
-75 0 -18 5 -33 10 -33 5 0 4 -9 -2 -19 -5 -11 -6 -21 -1 -23 5 -2 10 -19 12
-38 2 -19 8 -41 13 -49 9 -12 8 -13 -4 -6 -12 6 -13 5 -2 -6 6 -7 12 -28 12
-46 0 -18 4 -33 8 -33 4 0 8 -12 7 -27 0 -16 6 -34 15 -41 8 -8 9 -11 3 -7
-15 7 -18 -21 -4 -29 4 -3 7 -16 7 -28 -1 -13 2 -32 8 -43 6 -11 9 -23 8 -27
-2 -7 11 -74 23 -128 4 -14 7 -30 9 -37 1 -7 5 -15 8 -19 4 -3 4 -12 1 -20 -3
-8 -1 -14 5 -14 5 0 8 -11 7 -25 -2 -14 0 -25 4 -25 4 0 8 -9 9 -20 1 -11 2
-28 3 -37 1 -10 5 -22 9 -28 4 -5 7 -24 6 -42 0 -17 2 -29 7 -26 4 2 8 -1 8
-6 1 -6 3 -15 4 -21 1 -5 3 -22 4 -36 0 -14 4 -23 9 -21 4 3 8 -13 9 -36 2
-22 7 -43 11 -46 5 -3 8 -14 6 -23 -1 -10 5 -22 14 -28 11 -6 12 -9 4 -10 -7
0 -10 -4 -7 -10 5 -9 8 -19 18 -65 2 -5 6 -15 9 -21 4 -6 10 -24 13 -40 7 -33
13 -57 15 -64 1 -3 3 -9 4 -15 1 -5 5 -17 8 -25 4 -8 10 -28 14 -45 4 -16 9
-37 11 -45 2 -8 5 -21 5 -27 1 -7 6 -13 11 -13 5 0 7 -9 4 -20 -3 -10 1 -24 9
-31 8 -6 12 -14 9 -18 -2 -4 2 -20 10 -35 8 -14 10 -24 5 -21 -4 3 1 -13 11
-35 11 -22 17 -45 14 -50 -3 -6 -1 -10 5 -10 6 0 10 -6 8 -12 -1 -7 3 -23 10
-36 7 -12 11 -26 8 -30 -2 -4 4 -24 14 -45 10 -20 14 -34 8 -31 -11 7 13 -38
25 -47 5 -3 8 -8 6 -10 -1 -2 1 -15 5 -29 5 -14 10 -34 12 -44 3 -11 9 -25 15
-33 6 -7 8 -13 4 -13 -4 0 -2 -6 4 -13 6 -8 8 -17 4 -20 -3 -4 -2 -7 4 -7 5 0
10 -6 11 -12 3 -38 8 -54 20 -66 7 -8 10 -18 7 -23 -4 -5 -1 -9 5 -9 6 0 9 -4
5 -9 -3 -5 -1 -12 4 -16 6 -3 8 -12 4 -20 -3 -8 0 -15 7 -15 6 0 8 -4 5 -10
-3 -5 -1 -10 5 -10 6 0 8 -4 5 -10 -3 -5 0 -10 7 -10 9 0 9 -3 -2 -10 -10 -6
-11 -10 -2 -10 6 0 12 -9 12 -20 0 -11 5 -20 10 -20 6 0 10 -9 10 -20 0 -11 6
-20 13 -20 9 0 9 -2 -1 -9 -8 -4 -13 -12 -13 -17 0 -5 -10 -8 -24 -8 -14 1
-25 -2 -25 -7 0 -5 -7 -6 -15 -3 -8 4 -15 1 -15 -7 0 -7 -3 -9 -7 -6 -3 4 -12
2 -19 -4 -8 -7 -14 -7 -19 1 -4 7 -16 3 -35 -10 -17 -12 -31 -16 -35 -10 -4 6
-15 4 -30 -6 -14 -9 -39 -17 -57 -18 -18 -1 -43 -8 -56 -15 -12 -6 -26 -9 -31
-6 -5 3 -15 -1 -23 -8 -7 -7 -25 -12 -40 -12 -15 1 -24 -3 -22 -7 3 -4 2 -8
-3 -9 -28 -2 -61 -11 -85 -24 -16 -7 -26 -9 -22 -4 4 7 0 7 -12 0 -32 -16 -65
-28 -90 -30 -9 0 -12 -6 -8 -13 4 -7 3 -8 -5 -4 -17 11 -53 -3 -44 -17 4 -8 1
-7 -9 1 -13 10 -19 10 -32 -3 -12 -12 -16 -13 -16 -3 0 8 -3 9 -8 3 -4 -5 -14
-11 -22 -13 -8 -2 -17 -8 -18 -13 -2 -5 -7 -7 -12 -4 -4 3 -29 -4 -54 -15 -26
-11 -47 -19 -49 -19 -3 1 -59 -22 -80 -32 -10 -6 -22 -7 -27 -4 -6 4 -10 1
-10 -5 0 -6 -4 -8 -10 -5 -5 3 -10 1 -10 -4 0 -6 -3 -10 -7 -9 -5 0 -17 -2
-28 -6 -26 -10 -81 -31 -125 -47 -19 -8 -38 -13 -42 -11 -5 1 -8 -3 -8 -8 0
-5 -3 -9 -7 -8 -5 1 -21 -4 -36 -10 -16 -7 -33 -9 -39 -6 -6 4 -8 2 -4 -4 3
-6 -6 -13 -24 -17 -17 -4 -27 -11 -24 -17 4 -6 -1 -8 -15 -3 -12 4 -21 2 -21
-4 0 -6 -7 -11 -15 -11 -8 0 -15 -4 -15 -10 0 -5 -6 -7 -14 -4 -8 3 -17 0 -21
-5 -3 -6 -11 -9 -16 -6 -5 4 -9 1 -9 -6 0 -7 -3 -9 -7 -6 -3 4 -15 0 -25 -10
-10 -9 -18 -13 -18 -9 0 5 -16 -2 -36 -13 -19 -12 -40 -19 -45 -16 -5 4 -9 -1
-9 -9 0 -10 -6 -13 -15 -10 -8 4 -15 1 -15 -5 0 -6 -3 -10 -7 -9 -5 1 -22 -5
-39 -15 -17 -9 -34 -13 -38 -10 -3 4 -6 1 -6 -6 0 -7 -4 -10 -9 -7 -5 4 -11 3
-13 -1 -1 -5 -30 -21 -63 -37 -33 -16 -72 -38 -86 -48 -14 -9 -29 -15 -32 -11
-4 3 -10 -2 -13 -11 -5 -14 -9 -15 -15 -4 -7 10 -9 10 -9 1 0 -7 -7 -13 -15
-13 -8 0 -15 -4 -15 -8 0 -4 -16 -14 -35 -21 -19 -7 -35 -17 -35 -22 0 -5 -3
-8 -7 -7 -13 3 -83 -35 -83 -44 0 -5 -4 -6 -10 -3 -5 3 -10 1 -10 -5 0 -6 -4
-8 -10 -5 -5 3 -10 1 -10 -6 0 -7 -3 -10 -6 -6 -3 3 -13 0 -20 -6 -34 -28 -40
-32 -54 -35 -8 -2 -16 -8 -18 -13 -2 -5 -12 -9 -22 -9 -9 0 -23 -7 -30 -15 -7
-8 -18 -15 -24 -15 -6 0 -26 -13 -44 -29 -17 -17 -32 -25 -32 -18 0 7 -5 4
-11 -6 -6 -9 -14 -15 -20 -12 -5 4 -9 -1 -9 -10 0 -9 -4 -13 -10 -10 -5 3 -22
-5 -37 -19 -15 -15 -33 -26 -39 -26 -6 0 -17 -7 -24 -15 -7 -8 -16 -12 -21 -9
-5 3 -9 -2 -9 -11 0 -9 -5 -13 -11 -10 -5 4 -19 -3 -30 -16 -10 -12 -19 -18
-19 -14 0 4 -9 -2 -20 -15 -11 -13 -20 -19 -20 -14 0 5 -7 0 -15 -10 -8 -11
-15 -16 -15 -12 0 6 -66 -39 -80 -55 -25 -28 -40 -11 -158 172 -708 1096
-1229 2243 -1577 3466 -82 289 -168 640 -160 653 4 7 14 6 28 -2 21 -10 21
-10 7 7 -14 17 -13 17 5 8 11 -5 51 -9 90 -7z m20958 -3 c-6 -16 -5 -16 10 -4
14 11 20 11 34 0 9 -8 14 -9 10 -3 -8 13 71 13 92 0 9 -6 12 -5 8 1 -8 13 52
12 72 -1 9 -6 12 -5 8 1 -4 7 7 10 31 9 20 -2 43 2 50 7 9 7 11 5 5 -9 -6 -17
-5 -17 10 -5 14 11 20 11 34 0 9 -8 14 -9 10 -3 -8 13 71 13 92 0 9 -6 12 -5
8 1 -8 13 52 12 72 -1 9 -6 12 -5 8 1 -4 7 7 10 31 9 20 -2 43 2 50 7 9 7 11
5 6 -8 -6 -14 -4 -16 7 -9 24 15 60 16 77 2 11 -9 14 -9 9 -1 -9 15 44 13 55
-2 5 -6 8 -6 8 1 0 13 148 13 169 0 10 -6 12 -6 7 2 -9 14 46 11 56 -3 5 -6 8
-6 8 1 0 13 148 13 169 0 10 -6 12 -6 7 2 -9 14 46 11 56 -3 5 -6 8 -6 8 1 0
13 148 13 169 0 10 -6 12 -6 7 2 -9 14 46 11 56 -3 5 -6 8 -6 8 1 0 13 148 13
169 0 10 -6 12 -6 7 2 -9 14 46 11 56 -3 5 -6 8 -6 8 1 0 13 148 13 169 0 10
-6 12 -6 7 2 -9 14 46 11 56 -3 5 -6 8 -6 8 1 0 13 148 13 169 0 10 -6 12 -6
7 2 -9 14 46 11 56 -3 5 -6 8 -6 8 1 0 13 148 13 169 0 10 -6 12 -6 7 2 -9 14
46 11 56 -3 5 -6 8 -6 8 1 0 13 148 13 169 0 10 -6 12 -6 7 2 -9 14 46 11 56
-3 5 -6 8 -6 8 1 0 13 148 13 169 0 10 -6 12 -6 7 2 -9 14 46 11 56 -3 5 -6 8
-6 8 1 0 7 29 10 83 9 45 -1 82 -3 82 -4 0 -1 8 -4 18 -6 9 -2 15 0 13 4 -7
11 196 8 213 -3 10 -6 12 -6 7 2 -9 14 46 11 56 -3 5 -6 8 -6 8 1 0 13 148 13
169 0 10 -6 12 -6 7 2 -9 14 46 11 56 -3 5 -6 8 -6 8 1 0 13 148 13 169 0 10
-6 12 -6 7 2 -4 7 -2 12 3 12 17 0 15 -9 -43 -245 -303 -1225 -792 -2408
-1447 -3498 -142 -236 -368 -587 -378 -587 -9 0 -54 31 -63 44 -4 6 -8 7 -8 3
0 -7 -10 0 -45 31 -7 6 -18 12 -24 12 -5 0 -15 8 -20 18 -6 9 -11 13 -11 9 0
-4 -10 1 -22 13 -12 11 -28 20 -35 20 -7 0 -13 4 -13 8 0 5 -16 17 -35 28 -19
10 -35 21 -35 25 0 7 -40 22 -53 20 -5 -1 -6 3 -2 9 3 5 2 10 -3 10 -5 0 -25
11 -45 24 -19 13 -38 22 -41 18 -3 -3 -6 0 -6 6 0 7 -6 12 -13 12 -7 0 -22 8
-33 18 -10 9 -39 28 -64 41 -25 14 -47 27 -50 30 -3 3 -21 14 -40 23 -41 21
-88 48 -124 71 -14 9 -33 17 -42 17 -10 0 -14 3 -11 7 8 7 -38 33 -59 33 -8 0
-14 5 -14 10 0 6 -9 10 -20 10 -11 0 -20 5 -20 10 0 6 -9 10 -20 10 -11 0 -20
3 -20 8 0 4 -25 18 -55 32 -30 14 -55 28 -55 32 0 5 -3 7 -7 6 -15 -4 -53 13
-53 23 0 6 -4 8 -9 4 -5 -3 -15 1 -23 8 -7 8 -21 13 -31 11 -9 -1 -17 1 -17 5
0 5 -25 19 -55 32 -30 13 -55 27 -55 31 0 4 -9 5 -20 3 -13 -2 -20 2 -20 11 0
8 -4 13 -9 9 -8 -5 -50 12 -114 46 -10 5 -22 7 -27 4 -6 -4 -10 -1 -10 4 0 6
-9 11 -20 11 -11 0 -23 6 -26 14 -3 8 -12 12 -20 9 -8 -3 -14 -1 -14 4 0 5 -6
10 -12 11 -23 1 -88 28 -83 34 3 3 -6 4 -20 3 -14 -2 -25 1 -25 6 0 6 -4 7
-10 4 -5 -3 -10 -1 -10 4 0 6 -8 11 -18 11 -10 0 -22 3 -26 7 -3 4 -12 8 -19
9 -7 1 -23 6 -37 12 -14 5 -28 10 -33 11 -4 0 -20 7 -36 15 -16 9 -31 12 -35
9 -3 -4 -6 -1 -6 5 0 7 -9 12 -19 12 -11 0 -23 5 -27 11 -3 6 -15 8 -26 6 -11
-3 -21 0 -25 9 -3 8 -10 14 -17 13 -6 -1 -24 3 -40 10 -16 6 -36 13 -45 15 -9
2 -29 8 -44 15 -16 6 -32 9 -37 6 -5 -3 -10 -1 -12 4 -1 5 -14 11 -28 13 -14
1 -27 6 -30 10 -3 4 -15 9 -25 11 -43 8 -81 20 -92 29 -7 5 -16 7 -22 4 -5 -4
-15 0 -23 7 -7 7 -20 12 -28 11 -8 0 -24 4 -35 11 -11 6 -29 11 -40 10 -11 0
-23 3 -26 7 -3 5 -18 10 -35 12 -36 6 -52 10 -84 23 -13 6 -34 9 -45 9 -11 -1
-22 2 -25 6 -3 3 -17 8 -32 10 -15 2 -30 7 -34 11 -4 4 -20 7 -36 7 -15 0 -28
5 -28 11 0 5 -4 8 -9 4 -16 -9 -22 12 -8 27 7 7 13 15 13 18 0 3 4 16 8 30 5
14 8 28 7 33 -1 4 3 7 9 7 5 0 7 7 4 15 -4 9 1 18 11 21 13 5 14 9 3 15 -8 6
-9 9 -2 9 7 0 15 7 18 16 4 10 2 13 -7 8 -7 -5 -6 -1 3 10 14 18 21 37 23 69
1 9 8 17 17 17 13 0 13 1 0 10 -8 5 -10 10 -4 10 10 0 25 42 28 75 1 6 7 16
14 23 6 7 12 21 12 31 0 9 5 22 12 29 7 7 9 12 5 12 -3 0 2 20 13 44 10 24 16
47 13 50 -4 3 -1 6 5 6 7 0 11 3 10 8 -3 16 15 81 22 77 4 -3 7 1 7 8 -2 28
16 97 25 97 6 0 8 12 5 26 -3 16 0 28 9 31 8 3 12 8 10 12 -2 3 1 17 7 31 5
14 11 35 12 47 1 12 8 29 15 38 7 8 10 18 7 22 -4 3 -2 12 4 20 6 7 8 13 5 13
-4 0 -2 10 5 21 6 12 13 31 14 43 5 26 13 61 15 61 3 0 11 39 13 60 1 11 9 25
17 32 13 11 13 12 0 13 -13 0 -13 1 0 10 8 5 11 10 6 10 -4 0 -1 11 7 24 9 13
14 32 13 42 -2 10 3 31 10 45 7 15 10 29 7 33 -4 3 0 6 8 6 11 0 11 2 -1 10
-11 7 -11 10 -2 10 7 0 11 4 7 9 -3 5 -1 12 5 16 6 4 8 10 5 15 -3 5 1 25 9
44 10 23 11 36 4 38 -7 3 -6 9 3 18 8 8 15 24 16 35 2 11 4 30 5 43 1 12 5 22
9 22 3 0 5 10 4 23 -1 12 1 24 5 27 8 5 21 68 24 113 0 15 4 27 7 27 3 0 6 6
7 13 1 6 4 26 7 42 3 17 7 39 9 50 2 11 4 20 5 20 2 0 12 62 14 83 0 6 4 12 8
12 4 0 6 8 4 18 -1 9 0 21 3 26 3 6 7 19 8 30 1 12 5 39 9 61 4 22 7 46 8 53
0 6 4 12 8 12 9 0 6 20 -4 38 -5 7 -3 14 6 17 8 4 13 19 12 40 -1 20 3 35 9
35 6 0 4 5 -4 10 -8 5 -10 10 -4 10 6 0 11 6 11 13 4 52 8 74 17 86 9 12 8 13
-3 6 -11 -6 -12 -5 -5 6 9 14 9 18 19 79 10 67 14 95 17 137 2 24 5 43 8 43 3
0 5 24 5 54 0 30 4 52 8 49 5 -3 7 3 6 13 -5 35 11 63 34 62 12 -1 28 -6 36
-12 11 -8 13 -8 8 0 -8 14 51 13 72 0 9 -6 12 -5 7 2 -4 7 8 9 34 8 23 -2 43
1 46 6 9 14 14 9 7 -9z m-17129 -5004 l-861 -861 -55 59 c-91 95 -270 300
-398 453 -112 135 -118 145 -103 162 9 10 22 18 29 18 7 0 14 3 16 8 4 8 65
52 73 52 6 0 20 11 50 38 8 7 15 10 15 5 0 -4 5 0 11 10 5 9 17 17 24 17 8 0
15 5 15 10 0 6 7 10 15 10 8 0 15 4 15 9 0 8 37 24 53 22 4 -1 6 4 5 10 -2 6
6 13 16 15 10 1 22 7 25 12 3 4 22 17 41 28 19 10 37 22 40 25 5 5 42 21 48
20 1 -1 11 8 22 19 12 12 25 18 30 15 6 -4 10 -2 10 3 0 5 14 15 30 22 17 7
30 16 30 20 0 7 27 19 52 24 4 0 13 7 20 14 6 6 19 12 27 12 8 0 22 6 30 14 9
8 22 16 30 18 8 2 23 10 33 18 10 8 22 15 26 16 14 1 87 39 94 49 4 6 8 7 8 3
0 -4 21 4 46 17 26 14 50 22 54 20 5 -3 10 0 12 5 2 6 11 12 20 13 9 2 24 9
34 17 9 8 18 14 18 12 1 -2 15 2 31 9 17 7 32 13 35 14 3 1 35 16 73 33 37 18
69 32 72 32 3 0 19 7 35 15 17 9 36 13 42 9 6 -4 8 -3 5 3 -3 5 16 15 43 22
28 7 50 17 50 23 0 5 10 8 23 6 15 -2 21 1 19 12 -2 8 0 12 3 8 4 -4 17 -3 28
3 10 6 17 7 14 2 -4 -6 15 0 41 13 25 12 50 20 54 18 5 -3 8 -1 8 3 0 5 20 15
45 22 25 7 45 18 46 25 0 7 3 6 6 -2 4 -10 8 -10 19 -1 8 6 14 8 14 5 0 -4 6
-4 13 1 6 4 21 9 32 10 10 2 22 7 25 11 5 7 13 9 50 17 8 2 15 4 15 5 0 1 8 3
18 5 10 2 26 7 35 11 9 4 22 8 27 9 6 0 17 4 25 8 21 8 120 37 149 43 14 3 32
9 40 14 9 5 18 6 20 4 3 -3 -382 -392 -855 -865z"/>
<path d="M13554 26201 c-3 -3 -20 -4 -39 -3 -18 1 -36 -1 -38 -5 -3 -5 -30 -8
-61 -7 -31 0 -56 -4 -56 -9 0 -5 -7 -4 -15 3 -8 7 -15 8 -15 3 0 -5 -16 -9
-36 -8 -19 0 -37 -2 -40 -6 -2 -4 -15 -6 -29 -4 -14 1 -25 -1 -25 -4 0 -4 -10
-7 -22 -8 -44 -2 -78 -7 -78 -13 0 -3 -10 -6 -22 -6 -35 -3 -73 -10 -83 -16
-6 -3 -18 -4 -27 -3 -10 2 -18 -1 -18 -6 0 -5 -11 -9 -25 -9 -14 0 -25 -4 -25
-8 0 -5 -13 -8 -30 -7 -16 1 -30 -2 -30 -7 0 -5 -4 -6 -10 -3 -5 3 -10 0 -10
-7 0 -9 -3 -9 -10 2 -5 8 -10 10 -10 4 0 -6 -6 -11 -12 -11 -20 -1 -42 -7 -48
-14 -6 -8 -122 -43 -132 -41 -5 1 -8 -2 -8 -6 0 -4 -11 -9 -24 -10 -13 -1 -41
-12 -62 -24 -21 -12 -46 -24 -56 -25 -10 -2 -29 -10 -42 -18 -12 -8 -26 -12
-29 -8 -4 3 -7 1 -7 -6 0 -7 -5 -9 -11 -5 -6 3 -14 3 -18 -2 -3 -5 -51 -31
-106 -59 -55 -27 -102 -53 -105 -56 -3 -3 -15 -9 -27 -13 -13 -4 -23 -11 -23
-16 0 -4 -12 -11 -27 -15 -15 -3 -31 -12 -35 -18 -4 -7 -13 -12 -20 -12 -7 -1
-12 -5 -11 -11 1 -5 -7 -11 -18 -11 -10 -1 -26 -8 -34 -15 -32 -29 -45 -38
-53 -38 -4 0 -17 -8 -28 -18 -10 -9 -40 -31 -66 -47 -26 -16 -44 -33 -41 -38
3 -5 0 -8 -7 -5 -12 4 -47 -22 -101 -74 -15 -15 -30 -24 -33 -21 -3 3 -8 -2
-12 -11 -3 -9 -10 -16 -15 -16 -7 0 -27 -17 -130 -116 -19 -19 -39 -31 -43
-27 -4 5 -6 3 -4 -3 2 -5 -29 -42 -69 -82 -39 -40 -70 -72 -69 -72 2 0 -15
-20 -38 -44 -83 -90 -105 -116 -99 -116 3 0 -4 -8 -15 -19 -12 -10 -19 -21
-15 -25 3 -3 1 -6 -5 -6 -6 0 -26 -21 -44 -47 -17 -27 -38 -54 -45 -61 -7 -8
-11 -18 -8 -23 4 -5 -1 -9 -9 -9 -9 0 -16 -7 -16 -15 0 -8 -4 -15 -10 -15 -5
0 -10 -7 -10 -15 0 -8 -4 -15 -10 -15 -5 0 -16 -16 -24 -35 -8 -19 -20 -35
-25 -35 -6 0 -10 -3 -9 -7 3 -13 -32 -73 -42 -73 -5 0 -7 -7 -4 -15 4 -8 2
-15 -3 -15 -5 0 -25 -30 -44 -67 -19 -38 -37 -70 -40 -73 -8 -7 -22 -44 -21
-52 1 -5 -2 -8 -7 -8 -5 0 -11 -8 -15 -17 -3 -10 -9 -24 -12 -31 -6 -13 29
-12 42 1 4 4 12 7 18 7 6 0 4 -5 -4 -10 -8 -5 -10 -10 -4 -10 6 0 14 3 18 7 3
4 12 8 19 9 7 1 26 5 42 8 17 4 48 9 70 12 22 3 47 8 55 11 8 3 29 7 45 10 36
4 70 11 70 13 0 8 62 4 67 -4 5 -7 8 -5 8 5 0 9 9 15 23 16 77 4 97 7 97 17 0
6 5 4 10 -4 5 -8 10 -10 10 -3 0 6 13 10 30 9 17 -1 30 1 30 5 0 4 11 6 25 4
14 -1 28 1 30 5 3 4 23 7 45 6 22 -1 40 1 40 4 0 6 8 7 93 12 26 2 47 7 47 12
0 4 8 2 17 -5 9 -8 14 -9 10 -3 -7 11 1 13 76 16 17 1 36 6 40 12 6 8 10 7 14
-2 2 -6 10 -9 16 -5 6 3 33 8 61 10 27 1 51 5 54 8 3 2 14 -1 26 -7 18 -9 19
-9 9 3 -9 12 -1 14 50 15 96 3 141 8 149 18 4 6 12 5 21 -3 9 -6 18 -8 21 -3
3 5 26 8 51 7 25 -1 45 0 45 4 0 3 11 6 25 6 14 0 25 -4 25 -9 0 -6 7 -1 15
10 8 10 15 14 15 7 0 -12 24 -12 36 0 4 3 15 2 25 -3 11 -6 20 -6 24 -1 3 6
14 8 25 6 11 -2 22 1 26 6 4 6 11 6 20 -2 11 -9 14 -8 14 2 0 11 2 11 10 -1 5
-8 10 -10 10 -5 0 6 35 10 86 10 47 0 87 2 89 5 2 3 30 5 64 4 40 0 58 3 54
10 -4 7 -2 7 6 0 7 -7 27 -9 49 -5 20 3 83 6 139 6 57 0 99 4 95 9 -3 5 -1 6
5 3 19 -12 63 -16 63 -5 0 7 5 6 14 -1 8 -7 17 -8 20 -3 7 11 46 10 65 -2 10
-6 12 -5 7 2 -4 7 -1 12 9 12 10 0 13 -5 9 -12 -5 -7 -3 -8 7 -2 23 14 131 15
122 1 -4 -7 0 -7 10 1 9 8 21 11 27 7 5 -3 10 0 10 7 0 9 3 9 10 -2 7 -11 10
-11 10 -2 0 8 5 10 13 5 6 -4 20 -6 31 -4 13 2 16 -1 10 -11 -6 -11 -5 -10 9
1 10 8 34 12 62 9 26 -2 45 1 45 7 0 5 5 3 10 -5 5 -8 10 -10 10 -4 0 7 17 8
50 4 33 -4 50 -3 50 4 0 7 3 8 8 1 9 -13 32 -17 32 -6 0 6 12 6 30 1 21 -6 30
-5 30 3 0 7 7 3 15 -7 8 -11 15 -14 15 -8 0 15 37 16 46 0 5 -7 11 -5 21 7 7
11 13 14 13 7 0 -6 10 -9 22 -7 12 3 28 -1 37 -8 12 -10 13 -9 7 2 -7 10 -3
12 14 6 16 -5 20 -4 15 5 -6 9 -3 9 12 1 14 -7 24 -7 33 2 9 8 11 8 7 1 -9
-16 18 -25 32 -11 9 9 14 8 21 -3 8 -12 10 -12 10 -1 0 10 3 11 14 2 10 -8 16
-9 21 -1 3 6 11 7 17 4 6 -4 63 -8 127 -8 64 -1 123 -6 130 -11 10 -5 12 -4 7
4 -7 11 16 9 61 -4 6 -2 14 1 17 8 3 9 5 9 5 0 1 -7 6 -13 12 -13 5 0 7 6 3
13 -6 9 -4 9 7 1 8 -6 33 -10 57 -10 23 1 42 -1 42 -4 0 -3 29 -4 65 -3 47 1
63 -2 58 -10 -4 -7 1 -5 12 3 10 8 20 14 21 12 12 -11 64 -19 64 -10 0 7 4 7
13 1 6 -6 33 -10 60 -9 26 0 47 -3 47 -7 0 -4 9 -3 19 3 14 7 22 7 26 -1 4 -6
13 -8 20 -5 7 2 18 -1 24 -7 8 -8 11 -8 11 1 0 9 6 10 18 4 9 -5 43 -8 75 -8
31 1 57 -2 57 -5 0 -7 32 -5 47 4 6 4 15 1 21 -6 6 -7 34 -12 66 -12 31 0 56
-2 56 -5 0 -6 10 -7 90 -10 25 -1 51 -7 59 -14 11 -8 13 -8 8 1 -5 8 0 11 13
10 11 -1 20 -4 20 -7 0 -5 40 -9 118 -13 12 -1 22 -5 22 -10 0 -5 6 -4 14 2 9
8 16 8 20 2 4 -5 14 -10 24 -10 18 1 97 -9 97 -11 0 -2 101 -12 133 -14 12 0
22 -4 22 -8 0 -3 11 -5 25 -3 14 1 25 -1 25 -5 0 -3 18 -6 40 -6 22 1 40 -2
40 -5 0 -3 15 -7 33 -8 78 -5 93 -8 105 -15 7 -4 32 -9 55 -11 23 -2 43 -4 45
-5 1 -2 5 -3 10 -4 4 -1 12 -4 17 -6 6 -3 25 -5 43 -5 17 0 32 -3 32 -7 0 -4
10 -8 23 -8 23 1 72 -6 72 -10 0 -1 15 -3 33 -5 17 -2 32 -2 32 0 0 9 -66 130
-72 133 -5 2 -8 12 -8 22 0 9 -7 23 -15 30 -8 7 -12 16 -9 21 3 5 0 9 -5 9 -6
0 -11 7 -11 15 0 8 -4 15 -9 15 -5 0 -11 8 -15 18 -12 35 -43 81 -51 74 -5 -4
-5 1 -2 11 4 11 1 20 -8 23 -8 4 -15 10 -15 15 0 11 -54 91 -101 150 -17 21
-28 39 -24 39 4 0 -6 13 -22 29 -15 16 -35 39 -43 51 -8 12 -27 35 -42 50 -16
16 -28 33 -28 39 0 5 -9 16 -20 24 -11 8 -17 17 -13 20 3 4 -1 7 -10 7 -10 0
-17 4 -17 9 0 6 -29 39 -64 75 -35 35 -62 67 -58 70 3 3 1 6 -5 6 -6 0 -38 27
-72 60 -34 33 -66 60 -71 60 -5 0 -11 8 -14 18 -3 10 -20 26 -37 36 -18 10
-39 26 -49 35 -9 9 -34 30 -55 46 -21 17 -50 41 -63 55 -14 14 -21 19 -17 12
4 -7 -20 7 -53 32 -33 25 -65 46 -72 46 -6 0 -8 5 -4 12 5 8 2 9 -9 5 -11 -4
-17 -1 -17 8 0 8 -4 15 -9 15 -5 0 -46 23 -90 50 -44 28 -85 50 -91 50 -5 0
-10 3 -10 8 0 8 -48 32 -65 32 -7 0 -20 9 -30 20 -9 10 -20 19 -24 18 -18 -2
-32 3 -27 10 2 4 -5 9 -17 9 -12 1 -23 7 -25 13 -2 5 -12 10 -23 10 -10 0 -19
5 -19 11 0 5 -4 7 -10 4 -5 -3 -10 -2 -10 4 0 6 -7 8 -15 5 -8 -4 -15 -1 -15
5 0 6 -8 11 -17 11 -9 0 -25 7 -35 17 -14 13 -18 13 -18 2 0 -9 -3 -10 -8 -3
-8 12 -70 44 -84 44 -5 0 -28 9 -50 20 -44 21 -63 26 -38 10 8 -5 10 -10 4
-10 -6 0 -17 7 -24 15 -7 8 -16 13 -20 10 -5 -3 -11 -1 -15 5 -3 5 -17 10 -31
10 -13 0 -24 5 -24 10 0 6 -13 10 -30 10 -16 0 -30 4 -30 8 0 4 -8 8 -17 9
-45 3 -63 8 -63 17 0 5 -3 7 -6 3 -3 -3 -26 1 -52 8 -25 8 -49 12 -54 9 -4 -3
-8 -1 -8 5 0 6 -7 7 -17 4 -9 -4 -14 -2 -11 3 3 5 -17 10 -45 11 -28 2 -53 6
-56 10 -3 5 -17 9 -31 9 -50 3 -80 9 -80 15 0 4 -13 4 -29 -1 -18 -5 -33 -4
-40 3 -5 5 -39 12 -73 13 -74 4 -88 7 -107 18 -11 7 -13 5 -7 -10 7 -18 6 -18
-10 -2 -16 16 -18 16 -31 0 -9 -12 -12 -13 -8 -2 5 13 -22 15 -201 15 -113 0
-208 -2 -210 -4z"/>
</g>
</svg>
