<svg width="28" height="38" viewBox="0 0 28 38" fill="none" xmlns="http://www.w3.org/2000/svg">
                <path d="M13.9894 0C6.27604 0 0 6.27604 0 13.9902C0 16.0024 0.411843 17.9235 1.22347 19.7008C4.72122 27.3547 11.4274 35.4356 13.3999 37.7297C13.5477 37.9012 13.7631 38 13.9898 38C14.2166 38 14.432 37.9012 14.5798 37.7297C16.5515 35.436 23.2577 27.3555 26.7566 19.7008C27.5686 17.9235 27.98 16.0024 27.98 13.9902C27.9793 6.27604 21.7032 0 13.9894 0ZM13.9894 21.2568C9.98262 21.2568 6.72249 17.9966 6.72249 13.9898C6.72249 9.98262 9.98262 6.72249 13.9894 6.72249C17.9963 6.72249 21.2564 9.98262 21.2564 13.9898C21.2568 17.9966 17.9966 21.2568 13.9894 21.2568Z" fill="url(#paint0_linear)"></path>
                <path d="M13.9894 0C6.27604 0 0 6.27604 0 13.9902C0 16.0024 0.411843 17.9235 1.22347 19.7008C4.72122 27.3547 11.4274 35.4356 13.3999 37.7297C13.5477 37.9012 13.7631 38 13.9898 38C14.2166 38 14.432 37.9012 14.5798 37.7297C16.5515 35.436 23.2577 27.3555 26.7566 19.7008C27.5686 17.9235 27.98 16.0024 27.98 13.9902C27.9793 6.27604 21.7032 0 13.9894 0ZM13.9894 21.2568C9.98262 21.2568 6.72249 17.9966 6.72249 13.9898C6.72249 9.98262 9.98262 6.72249 13.9894 6.72249C17.9963 6.72249 21.2564 9.98262 21.2564 13.9898C21.2568 17.9966 17.9966 21.2568 13.9894 21.2568Z" fill="url(#paint1_radial)"></path>
                <defs>
                <linearGradient id="paint0_linear" x1="13.99" y1="0" x2="13.99" y2="38" gradientUnits="userSpaceOnUse">
                <stop stop-color="#FF0303"></stop>
                <stop offset="1" stop-color="#FF2E00"></stop>
                </linearGradient>
                <radialGradient id="paint1_radial" cx="0" cy="0" r="1" gradientUnits="userSpaceOnUse" gradientTransform="translate(13.99 0.934425) rotate(90) scale(25.2295 18.5769)">
                <stop stop-color="white" stop-opacity="0.35"></stop>
                <stop offset="0.75" stop-color="white" stop-opacity="0.3"></stop>
                <stop offset="1" stop-color="white" stop-opacity="0"></stop>
                </radialGradient>
                </defs>
                </svg>