<svg width="40" height="28" viewBox="0 0 40 28" fill="none" xmlns="http://www.w3.org/2000/svg">
                    <path d="M0 0V27.7362H40V0H0ZM35.944 6.95415L19.9999 16.1254L4.05612 6.95415C3.24103 6.48507 2.95981 5.44463 3.42936 4.62966C3.89833 3.81469 4.93899 3.53382 5.75339 4.0029L19.9999 12.1973L34.2467 4.0029C35.0615 3.5337 36.1017 3.81469 36.5709 4.62966C37.0401 5.44463 36.759 6.48507 35.944 6.95415Z" fill="url(#paint0_linear)"></path>
                    <path d="M0 0V27.7362H40V0H0ZM35.944 6.95415L19.9999 16.1254L4.05612 6.95415C3.24103 6.48507 2.95981 5.44463 3.42936 4.62966C3.89833 3.81469 4.93899 3.53382 5.75339 4.0029L19.9999 12.1973L34.2467 4.0029C35.0615 3.5337 36.1017 3.81469 36.5709 4.62966C37.0401 5.44463 36.759 6.48507 35.944 6.95415Z" fill="url(#paint1_radial)"></path>
                    <defs>
                    <linearGradient id="paint0_linear" x1="20" y1="0" x2="20" y2="27.7362" gradientUnits="userSpaceOnUse">
                    <stop stop-color="#FF0303"></stop>
                    <stop offset="1" stop-color="#FF2E00"></stop>
                    </linearGradient>
                    <radialGradient id="paint1_radial" cx="0" cy="0" r="1" gradientUnits="userSpaceOnUse" gradientTransform="translate(20 0.682037) rotate(90) scale(18.415 26.5574)">
                    <stop stop-color="white" stop-opacity="0.35"></stop>
                    <stop offset="0.75" stop-color="white" stop-opacity="0.3"></stop>
                    <stop offset="1" stop-color="white" stop-opacity="0"></stop>
                    </radialGradient>
                    </defs>
                </svg>