<svg width="39" height="36" viewBox="0 0 39 36" fill="none" xmlns="http://www.w3.org/2000/svg">
                <path fill-rule="evenodd" clip-rule="evenodd" d="M33.2222 3.15399V0H29.1348V3.15399H9.86535V0H5.7779V3.15399H0V32.8156C0 34.1056 1.04569 35.1513 2.33569 35.1513H36.6643C37.9543 35.1513 39 34.1056 39 32.8156V3.15399H33.2222ZM34.3892 30.2033H4.61076V10.204H34.3892V30.2033ZM13.7775 14.0142H8.8728V18.9189H13.7775V14.0142ZM17.0477 14.0142H21.9524V18.9189H17.0477V14.0142ZM30.1273 14.0142H25.2226V18.9189H30.1273V14.0142ZM8.8728 21.4884H13.7775V26.3931H8.8728V21.4884ZM21.9524 21.4884H17.0477V26.3931H21.9524V21.4884ZM25.2226 21.4884H30.1273V26.3931H25.2226V21.4884Z" fill="url(#paint0_linear)"></path>
                <path fill-rule="evenodd" clip-rule="evenodd" d="M33.2222 3.15399V0H29.1348V3.15399H9.86535V0H5.7779V3.15399H0V32.8156C0 34.1056 1.04569 35.1513 2.33569 35.1513H36.6643C37.9543 35.1513 39 34.1056 39 32.8156V3.15399H33.2222ZM34.3892 30.2033H4.61076V10.204H34.3892V30.2033ZM13.7775 14.0142H8.8728V18.9189H13.7775V14.0142ZM17.0477 14.0142H21.9524V18.9189H17.0477V14.0142ZM30.1273 14.0142H25.2226V18.9189H30.1273V14.0142ZM8.8728 21.4884H13.7775V26.3931H8.8728V21.4884ZM21.9524 21.4884H17.0477V26.3931H21.9524V21.4884ZM25.2226 21.4884H30.1273V26.3931H25.2226V21.4884Z" fill="url(#paint1_radial)"></path>
                <defs>
                <linearGradient id="paint0_linear" x1="19.5" y1="0" x2="19.5" y2="35.1513" gradientUnits="userSpaceOnUse">
                <stop stop-color="#FF0303"></stop>
                <stop offset="1" stop-color="#FF2E00"></stop>
                </linearGradient>
                <radialGradient id="paint1_radial" cx="0" cy="0" r="1" gradientUnits="userSpaceOnUse" gradientTransform="translate(19.5 0.864374) rotate(90) scale(23.3381 25.8934)">
                <stop stop-color="white" stop-opacity="0.35"></stop>
                <stop offset="0.75" stop-color="white" stop-opacity="0.3"></stop>
                <stop offset="1" stop-color="white" stop-opacity="0"></stop>
                </radialGradient>
                </defs>
                </svg>